<?xml version="1.0" standalone="no"?>
<!DOCTYPE svg PUBLIC "-//W3C//DTD SVG 20010904//EN"
 "http://www.w3.org/TR/2001/REC-SVG-20010904/DTD/svg10.dtd">
<svg version="1.0" xmlns="http://www.w3.org/2000/svg"
 width="300.000000pt" height="300.000000pt" viewBox="0 0 300.000000 300.000000"
 preserveAspectRatio="xMidYMid meet">

<g transform="translate(0.000000,300.000000) scale(0.100000,-0.100000)"
fill="#000000" stroke="none">
<path d="M90 1485 l0 -1305 365 0 365 0 0 75 0 75 -255 0 -255 0 0 1155 0
1155 255 0 255 0 0 75 0 75 -365 0 -365 0 0 -1305z"/>
<path d="M2170 2715 l0 -75 255 0 255 0 0 -1155 0 -1155 -255 0 -255 0 0 -75
0 -75 365 0 365 0 0 1305 0 1305 -365 0 -365 0 0 -75z"/>
<path d="M1020 1503 l0 -1218 610 610 610 610 -607 607 c-335 335 -609 608
-610 608 -2 0 -3 -548 -3 -1217z m578 404 l422 -422 -430 -430 -430 -430 0
853 c0 468 3 852 8 852 4 0 197 -190 430 -423z"/>
<path d="M1320 1487 c0 -257 3 -467 8 -467 4 0 111 104 237 230 l230 230 -238
238 -237 237 0 -468z"/>
<path d="M450 1485 l0 -1015 185 0 185 0 0 55 0 55 -70 0 -70 0 0 905 0 905
70 0 70 0 0 55 0 55 -185 0 -185 0 0 -1015z"/>
<path d="M2170 2445 l0 -55 70 0 70 0 0 -905 0 -905 -70 0 -70 0 0 -55 0 -55
185 0 185 0 0 1015 0 1015 -185 0 -185 0 0 -55z"/>
</g>
</svg>
