<?xml version="1.0" standalone="no"?>
<!DOCTYPE svg PUBLIC "-//W3C//DTD SVG 20010904//EN"
 "http://www.w3.org/TR/2001/REC-SVG-20010904/DTD/svg10.dtd">
<svg version="1.0" xmlns="http://www.w3.org/2000/svg"
 width="800.000000pt" height="800.000000pt" viewBox="0 0 800.000000 800.000000"
 preserveAspectRatio="xMidYMid meet">

<g transform="translate(0.000000,800.000000) scale(0.100000,-0.100000)"
fill="#000000" stroke="none">
<path d="M4144 7929 c-12 -4 -46 -8 -75 -8 -86 0 -243 -44 -282 -79 -16 -14
-19 -14 -27 -2 -8 13 -10 12 -10 -2 0 -11 -5 -15 -15 -12 -9 4 -15 0 -15 -7
-1 -8 -47 -45 -103 -82 -117 -77 -147 -101 -147 -115 0 -5 -12 -9 -26 -9 -16
0 -22 2 -14 7 15 9 6 40 -11 40 -6 0 -8 -7 -5 -16 4 -12 2 -15 -9 -10 -9 3
-31 -10 -57 -35 -24 -22 -56 -47 -72 -56 -31 -16 -127 -82 -136 -92 -3 -3 -17
-12 -32 -20 -16 -8 -28 -18 -28 -23 0 -4 -7 -8 -15 -8 -7 0 -19 -8 -24 -17 -6
-10 -11 -15 -11 -11 0 7 -91 -49 -117 -72 -7 -6 -13 -8 -13 -4 0 4 -8 -3 -19
-14 -10 -12 -24 -22 -30 -22 -7 0 -9 -4 -6 -10 3 -5 0 -8 -7 -5 -7 3 -26 -6
-42 -20 -16 -14 -33 -25 -38 -25 -4 0 -8 -7 -8 -15 0 -8 -6 -12 -13 -9 -7 2
-24 -5 -37 -16 -14 -12 -41 -31 -62 -42 -21 -12 -38 -25 -38 -30 0 -4 -4 -8
-10 -8 -8 0 -187 -116 -200 -130 -3 -3 -30 -21 -60 -40 -30 -19 -62 -40 -70
-47 -16 -12 -166 -116 -260 -181 -30 -20 -57 -39 -60 -42 -3 -3 -48 -34 -100
-70 -52 -35 -101 -70 -107 -76 -7 -7 -29 -22 -50 -35 -21 -13 -40 -26 -43 -30
-3 -3 -30 -23 -60 -43 -30 -20 -80 -54 -110 -76 -30 -22 -72 -52 -93 -66 -37
-24 -115 -82 -149 -109 -9 -7 -40 -29 -70 -49 -29 -19 -76 -52 -105 -73 -28
-21 -88 -64 -133 -96 -149 -106 -325 -254 -408 -342 -94 -99 -231 -298 -263
-383 -11 -31 -33 -100 -47 -152 -26 -94 -27 -99 -27 -425 0 -282 3 -341 18
-406 33 -142 87 -291 121 -338 29 -40 488 -499 730 -731 43 -41 181 -178 306
-305 125 -126 281 -282 346 -346 66 -64 157 -157 204 -206 116 -121 287 -283
300 -283 5 0 10 -4 10 -8 0 -10 251 -260 352 -352 105 -94 355 -337 748 -726
190 -188 377 -370 415 -404 205 -182 373 -238 569 -191 132 32 205 72 431 238
16 12 50 32 73 44 24 12 49 32 54 45 12 27 104 98 151 118 18 7 67 44 108 82
41 38 92 83 113 99 21 17 59 47 84 68 24 21 57 46 71 54 14 9 31 21 36 27 21
23 131 112 160 131 17 10 35 24 40 30 15 18 244 199 329 260 23 17 50 38 61
47 49 41 341 271 378 298 23 17 65 48 92 70 28 22 68 53 90 68 22 15 51 37 65
48 62 54 124 103 187 149 37 28 71 55 76 62 9 14 196 160 452 353 228 172 407
314 456 363 62 60 99 138 155 322 36 119 38 235 6 315 -28 69 -42 90 -49 73
-2 -7 -9 -13 -14 -13 -6 0 -7 5 -4 10 3 6 -1 10 -9 10 -8 0 -18 5 -22 12 -5 8
-2 9 10 5 14 -6 16 -2 12 21 -6 40 -36 93 -55 99 -9 2 -27 10 -41 16 -14 6
-28 10 -32 9 -5 -1 -8 3 -8 8 0 12 17 13 24 1 8 -12 46 -21 46 -11 0 5 -27 25
-60 45 -35 21 -60 43 -60 53 0 48 22 137 37 154 15 17 15 22 3 41 -7 12 -16
63 -19 112 l-6 90 -19 -27 c-10 -16 -26 -28 -35 -28 -25 0 -106 -50 -223 -136
-58 -44 -145 -108 -194 -144 -296 -219 -477 -364 -517 -415 -16 -20 -27 -38
-25 -40 6 -7 226 133 302 192 171 134 357 274 504 378 l156 112 18 -51 c9 -28
17 -57 18 -63 0 -7 -19 -25 -42 -40 -24 -15 -77 -55 -118 -89 -41 -33 -124
-98 -185 -144 -124 -94 -151 -115 -285 -222 -52 -41 -153 -115 -225 -163 -123
-83 -130 -90 -127 -119 1 -16 5 -32 8 -35 12 -12 104 50 339 227 432 326 493
371 558 411 l37 23 0 -29 c0 -16 8 -45 19 -65 l18 -37 -135 -108 c-75 -59
-164 -128 -198 -153 -34 -25 -95 -70 -136 -101 -40 -31 -147 -111 -238 -178
-297 -220 -282 -206 -260 -241 8 -12 15 -11 52 8 45 23 257 168 292 200 12 11
39 31 61 46 43 28 67 47 306 227 85 64 163 121 174 127 18 9 26 4 63 -40 24
-28 42 -58 40 -67 -2 -9 -45 -47 -95 -86 -51 -38 -174 -133 -275 -210 -101
-77 -214 -162 -252 -190 -107 -78 -456 -341 -511 -386 -27 -22 -75 -58 -105
-80 -30 -21 -116 -86 -190 -144 -74 -58 -187 -143 -250 -190 -63 -46 -151
-112 -195 -147 -44 -34 -147 -114 -230 -176 -137 -104 -353 -269 -458 -349
-23 -18 -45 -29 -48 -25 -6 6 -39 184 -39 206 0 3 6 6 14 6 13 0 158 100 290
200 32 25 71 54 85 64 46 35 171 129 251 191 43 33 132 100 197 149 65 49 154
119 198 155 44 37 135 108 201 159 67 51 124 99 127 106 8 21 -17 38 -45 31
-12 -4 -39 -18 -59 -33 -100 -74 -352 -269 -493 -381 -61 -47 -122 -95 -137
-106 -205 -153 -354 -268 -430 -332 -52 -43 -111 -91 -132 -107 -21 -16 -41
-42 -46 -60 -8 -30 -8 -30 -15 19 -4 28 -13 76 -21 107 -8 32 -15 60 -15 62 0
2 24 20 53 40 28 20 97 70 152 112 55 41 145 107 200 146 55 40 125 93 155
118 30 26 93 75 140 110 47 36 131 104 187 152 96 83 102 90 91 113 -13 29
-19 27 -120 -53 -100 -79 -139 -108 -223 -172 -277 -210 -362 -275 -450 -347
-55 -44 -109 -90 -120 -103 -40 -45 -51 -44 -97 4 -52 54 -89 66 -132 42 -38
-21 -309 -231 -428 -332 -68 -57 -90 -82 -99 -113 -17 -57 -9 -67 56 -75 65
-7 90 -18 99 -43 10 -26 34 -303 38 -432 l3 -114 -80 -59 c-44 -32 -109 -75
-145 -95 -60 -35 -71 -38 -143 -37 -69 0 -82 4 -119 30 -129 90 -160 271 -87
499 55 173 103 262 206 378 45 50 334 288 498 410 44 32 107 81 140 108 65 52
270 207 370 279 34 25 89 66 121 92 68 54 321 240 475 348 124 87 161 114 524
385 154 115 307 232 340 260 111 94 330 271 372 301 22 16 110 81 195 144 84
64 176 132 203 151 89 63 305 190 313 185 5 -3 7 -20 5 -38 -3 -32 -3 -32 14
9 10 24 50 82 88 129 39 47 79 97 90 111 18 22 20 39 19 148 -2 137 -11 175
-54 223 -39 42 -45 41 -15 -4 14 -20 25 -43 25 -50 0 -7 3 -21 7 -31 6 -17 6
-17 -14 0 -11 9 -23 17 -28 17 -5 0 -1 -6 9 -13 9 -7 18 -21 20 -32 3 -21 -32
-67 -46 -59 -4 3 -8 -1 -8 -10 0 -8 -13 -20 -29 -27 -16 -7 -27 -17 -25 -21 3
-4 0 -8 -7 -8 -7 0 -20 -7 -30 -16 -14 -12 -22 -13 -39 -4 -12 6 -19 14 -16
17 3 3 13 0 21 -7 14 -11 17 -10 22 8 3 12 10 19 15 16 6 -4 5 2 -1 14 -14 26
-14 43 0 20 10 -18 39 -14 39 5 0 6 -3 7 -7 4 -3 -4 -15 0 -25 10 -10 9 -18
12 -18 7 0 -11 -20 17 -20 29 0 4 9 3 20 -3 16 -9 18 -8 14 5 -4 8 -10 15 -15
15 -5 0 -9 5 -9 10 0 6 11 8 25 6 14 -3 25 0 25 5 0 5 -8 9 -17 7 -11 -2 -19
5 -21 17 -4 17 -2 18 12 6 14 -12 16 -12 10 3 -3 9 -1 16 5 16 6 0 11 -5 11
-12 0 -6 3 -9 6 -6 3 4 0 17 -7 30 -12 23 -12 23 10 4 24 -22 28 -11 6 18 -8
10 -12 23 -8 29 3 6 1 7 -5 3 -6 -3 -13 -2 -16 3 -4 5 -2 12 4 16 5 3 10 11
10 17 0 6 -6 6 -15 -2 -10 -8 -13 -20 -9 -34 6 -18 5 -19 -9 -8 -9 8 -14 19
-11 26 2 6 -6 22 -19 34 -23 22 -24 22 -41 3 -11 -12 -14 -21 -7 -26 6 -3 11
-11 11 -18 0 -8 -4 -7 -12 1 -14 14 -19 64 -6 56 22 -14 4 17 -23 40 -17 14
-28 30 -24 35 3 5 0 13 -6 17 -8 5 -9 3 -4 -6 5 -8 3 -11 -6 -8 -8 3 -13 12
-11 21 3 17 -45 47 -65 40 -6 -2 -13 6 -15 19 -2 13 -11 24 -23 27 -11 2 -23
8 -27 14 -4 7 -15 4 -33 -7 -15 -10 -30 -14 -33 -10 -4 4 -1 9 6 11 14 5 17
33 3 33 -5 0 -11 -9 -14 -20 -3 -11 -10 -20 -16 -20 -20 0 -11 28 14 48 14 11
21 23 16 26 -5 4 -12 2 -16 -4 -3 -5 -13 -10 -22 -10 -9 0 -21 -7 -27 -15 -11
-15 -36 0 -126 78 -14 12 -26 20 -27 19 -11 -9 -12 2 -2 21 11 20 11 21 -4 8
-20 -16 -21 -12 -7 25 7 19 7 30 -1 40 -15 19 -27 18 -32 -3 -4 -17 -5 -17 -6
0 -1 11 -6 15 -12 11 -8 -4 -9 1 -5 17 7 24 7 24 -10 4 -16 -20 -16 -19 -10 6
4 19 1 29 -10 33 -22 9 -24 8 -24 -10 0 -8 5 -12 10 -9 6 3 10 1 10 -4 0 -18
-19 -12 -30 8 -13 25 -13 34 1 25 29 -17 -1 23 -32 44 -19 13 -51 39 -71 58
-21 20 -42 33 -48 29 -6 -3 -13 1 -16 10 -6 14 -9 14 -16 3 -7 -9 -9 -7 -5 8
3 13 -3 25 -14 32 -25 16 -32 15 -26 -2 4 -10 1 -13 -8 -9 -11 4 -12 10 -5 23
7 14 6 20 -7 24 -9 4 -20 1 -25 -6 -6 -9 -7 -6 -3 9 7 25 -13 42 -27 22 -8
-11 -9 -10 -4 3 7 22 -13 35 -26 17 -8 -11 -9 -10 -4 3 6 20 -10 34 -18 16 -3
-7 -4 -4 -1 8 7 28 -22 54 -37 33 -8 -11 -9 -11 -5 3 8 24 -21 47 -34 27 -8
-12 -10 -12 -8 1 3 30 -2 39 -33 61 -25 18 -30 19 -25 6 4 -11 2 -14 -9 -10
-8 3 -13 11 -10 19 3 7 -2 18 -10 25 -13 10 -17 10 -25 -2 -8 -11 -9 -9 -7 7
2 14 -12 33 -45 62 -48 42 -67 51 -67 32 0 -5 -5 -10 -10 -10 -7 0 -7 6 -1 19
9 16 2 25 -48 65 -33 25 -61 43 -64 39 -2 -5 -3 -3 -1 3 2 12 -8 21 -71 68
-22 17 -44 36 -48 43 -4 7 -15 13 -22 13 -8 0 -15 4 -15 9 0 5 -35 36 -77 69
-43 32 -95 74 -115 94 -20 19 -73 61 -118 92 -45 32 -84 64 -87 72 -3 7 -9 11
-14 8 -5 -3 -9 -1 -9 4 0 8 -110 108 -186 167 -21 17 -48 40 -61 52 -13 12
-23 20 -23 18 0 -3 -9 3 -19 12 -11 9 -17 21 -14 27 3 6 3 8 -2 4 -4 -4 -20 5
-35 20 -58 59 -128 112 -133 99 -4 -9 -6 -9 -6 1 -1 17 -50 66 -74 75 -10 4
-16 11 -12 16 3 5 -4 12 -15 16 -11 3 -20 11 -20 16 0 5 -7 9 -16 9 -8 0 -13
4 -10 9 6 8 -25 26 -33 19 -2 -2 -7 7 -12 18 -4 12 -21 28 -38 35 -16 7 -28
16 -25 20 6 10 -85 91 -95 85 -5 -3 -8 2 -7 12 0 9 -5 16 -11 14 -7 -1 -13 2
-13 8 0 6 -7 10 -15 10 -8 0 -14 6 -13 12 2 7 -11 19 -29 27 -17 8 -34 22 -36
32 -3 11 -13 22 -23 26 -9 3 -32 21 -51 39 -20 19 -40 31 -48 27 -11 -4 -13
-1 -9 11 3 9 1 16 -5 16 -6 0 -11 -5 -11 -11 0 -5 -4 -8 -10 -4 -5 3 -6 13 -3
23 3 9 3 14 -1 10 -4 -3 -23 0 -41 8 -22 9 -36 10 -40 4 -6 -10 -5 -11 14 -14
18 -2 24 -16 7 -16 -10 0 -25 7 -34 16 -14 15 -14 17 1 26 9 5 17 13 17 19 0
5 -11 2 -25 -7 -23 -15 -25 -15 -19 0 3 9 10 13 15 10 5 -3 9 2 9 10 0 12 -5
14 -24 6 -29 -11 -43 2 -52 48 -4 18 -13 32 -21 32 -7 0 -16 6 -19 14 -7 19
-34 29 -34 13 0 -7 13 -21 29 -32 27 -17 32 -30 13 -30 -4 0 -13 -4 -19 -8 -8
-5 -13 -4 -13 2 0 6 6 11 13 11 6 0 0 10 -14 23 -14 12 -24 28 -21 36 3 8 0
11 -7 7 -6 -4 -11 -14 -11 -21 0 -9 -6 -12 -15 -9 -8 4 -15 10 -15 16 0 5 5 6
10 3 6 -3 10 -4 10 -1 0 3 -10 10 -21 17 -14 7 -19 7 -15 0 4 -5 -6 -4 -21 4
-19 10 -29 11 -34 3 -4 -7 -10 -5 -15 5 -6 10 -15 12 -30 6z m31 -131 c22 -11
85 -55 140 -99 55 -44 123 -95 150 -113 92 -60 102 -81 60 -120 -27 -25 -139
-71 -197 -82 -68 -11 -102 2 -177 71 l-70 64 -53 -21 c-163 -62 -324 -49 -387
31 -17 21 -31 45 -31 53 0 17 194 150 286 197 33 17 78 35 100 40 52 13 130 4
179 -21z m-701 -221 c3 -12 3 -23 0 -26 -3 -3 -7 5 -11 17 -4 18 -8 20 -19 11
-11 -9 -14 -8 -14 3 0 23 37 19 44 -5z m-108 -42 c-3 -8 0 -15 6 -15 6 0 9 -2
6 -5 -3 -3 -12 -3 -21 1 -13 5 -14 9 -4 20 16 18 20 17 13 -1z m114 -6 c12 -9
12 -10 -3 -5 -10 3 -25 -1 -34 -10 -19 -19 -30 -10 -13 11 15 18 29 19 50 4z
m-91 -42 c-2 -1 -13 -9 -24 -17 -19 -14 -19 -14 -6 3 7 9 18 17 24 17 6 0 8
-1 6 -3z m-101 -82 c-3 -3 -9 2 -12 12 -6 14 -5 15 5 6 7 -7 10 -15 7 -18z
m329 -33 c10 -25 -141 -148 -372 -302 -77 -51 -129 -89 -300 -216 -44 -32
-115 -83 -157 -112 -43 -29 -140 -98 -215 -153 -76 -55 -167 -120 -203 -146
-72 -51 -156 -113 -300 -219 -52 -39 -125 -92 -161 -117 -171 -121 -229 -161
-294 -204 -38 -25 -82 -57 -97 -71 -26 -24 -28 -24 -33 -6 -4 10 -12 36 -20
56 -13 37 -13 38 24 70 21 18 62 50 92 71 151 105 397 281 499 358 63 47 159
116 214 155 89 63 209 148 356 254 197 141 715 508 829 587 l75 52 29 -21 c16
-11 31 -27 34 -36z m-413 17 c-3 -5 0 -9 7 -9 10 0 10 -3 1 -12 -10 -10 -15
-10 -22 2 -6 10 -6 16 1 18 6 3 5 10 -3 20 -12 15 -11 16 4 3 10 -7 15 -17 12
-22z m1626 -23 c0 -3 -4 -8 -10 -11 -5 -3 -10 -1 -10 4 0 6 5 11 10 11 6 0 10
-2 10 -4z m30 -16 c0 -5 -5 -10 -11 -10 -5 0 -7 5 -4 10 3 6 8 10 11 10 2 0 4
-4 4 -10z m-165 -104 c51 -39 144 -118 206 -175 63 -57 137 -120 164 -141 28
-20 77 -62 110 -91 33 -30 101 -88 150 -129 50 -41 131 -111 180 -155 50 -44
110 -96 135 -115 25 -19 95 -77 155 -130 61 -52 148 -127 195 -165 174 -142
930 -818 930 -832 0 -2 -9 -21 -20 -43 -11 -22 -20 -46 -20 -55 0 -20 -6 -19
-42 6 -16 12 -30 20 -32 18 -1 -2 -8 -17 -15 -34 -12 -29 -13 -29 -27 -10 -8
11 -12 25 -10 32 3 6 -14 28 -37 48 -23 20 -58 51 -78 70 -36 35 -53 37 -42 7
4 -10 3 -14 -1 -11 -4 4 -9 17 -11 30 -3 13 -16 34 -30 47 -28 23 -51 30 -39
10 4 -7 3 -8 -4 -4 -8 4 -8 15 -2 31 6 15 6 27 0 30 -6 4 -10 -1 -10 -10 0
-14 -4 -13 -30 5 -16 12 -34 18 -40 15 -5 -3 -10 -1 -10 4 0 6 5 11 12 11 6 0
3 6 -7 14 -11 8 -23 12 -27 10 -5 -3 -8 1 -8 9 0 13 -103 111 -136 130 -15 9
-19 27 -6 27 4 0 28 -19 52 -43 58 -55 130 -111 136 -105 2 3 -35 38 -83 79
-48 41 -117 101 -153 135 -36 33 -139 125 -230 203 -91 79 -199 174 -240 210
-184 164 -272 234 -280 221 -10 -16 -18 -12 -67 39 -40 41 -57 71 -31 55 7 -4
8 -3 4 5 -4 6 -11 9 -16 6 -14 -9 -60 25 -60 44 0 13 -2 14 -9 2 -7 -11 -10
-7 -13 15 -2 22 -8 29 -24 29 -11 0 -28 6 -37 14 -10 7 -17 10 -17 6 0 -4 -11
4 -25 19 -29 31 -32 41 -9 32 14 -6 15 -4 4 9 -12 14 -14 14 -22 1 -7 -12 -12
-11 -35 10 -31 29 -23 46 9 18 20 -16 20 -15 -2 9 -13 16 -26 24 -28 18 -5
-15 -52 9 -52 26 0 8 5 11 12 7 7 -4 8 -3 4 4 -4 7 -17 12 -30 12 -22 0 -46
17 -46 33 0 4 6 5 13 2 6 -4 1 3 -12 15 -19 16 -26 18 -32 8 -6 -9 -9 -7 -9 8
0 11 -16 35 -35 54 -19 19 -35 29 -35 22 0 -22 -16 -12 -83 51 -74 68 -88 93
-29 51 l37 -27 -32 29 c-82 75 -124 105 -135 98 -7 -4 -10 -3 -5 1 4 5 -7 23
-24 41 -26 27 -36 31 -51 23 -14 -7 -18 -6 -18 6 0 8 5 15 10 15 26 0 -32 43
-59 44 -29 1 -33 16 -4 16 9 0 24 6 32 14 29 26 72 44 93 38 11 -2 62 -37 113
-76z m-735 34 c0 -5 -2 -10 -4 -10 -3 0 -8 5 -11 10 -3 6 -1 10 4 10 6 0 11
-4 11 -10z m-916 -35 c-4 -8 -11 -12 -16 -9 -6 4 -5 10 3 15 19 12 19 11 13
-6z m1071 -6 c11 -16 1 -19 -13 -3 -7 8 -8 14 -3 14 5 0 13 -5 16 -11z m-257
-34 c-3 -3 -9 2 -12 12 -6 14 -5 15 5 6 7 -7 10 -15 7 -18z m647 16 c3 -5 1
-12 -5 -16 -5 -3 -10 1 -10 9 0 18 6 21 15 7z m55 -58 c20 -18 26 -33 13 -33
-9 1 -47 50 -39 50 3 0 15 -8 26 -17z m100 -83 c0 -5 -2 -10 -4 -10 -3 0 -8 5
-11 10 -3 6 -1 10 4 10 6 0 11 -4 11 -10z m-2016 -115 c-4 -8 -11 -12 -16 -9
-6 4 -5 10 3 15 19 12 19 11 13 -6z m2231 -65 c3 -5 1 -10 -4 -10 -6 0 -11 5
-11 10 0 6 2 10 4 10 3 0 8 -4 11 -10z m615 -4 c0 -2 -7 -9 -15 -16 -13 -11
-14 -10 -9 4 5 14 24 23 24 12z m-600 -26 c0 -5 -2 -10 -4 -10 -3 0 -8 5 -11
10 -3 6 -1 10 4 10 6 0 11 -4 11 -10z m-2000 -204 c0 -2 -7 -7 -16 -10 -8 -3
-12 -2 -9 4 6 10 25 14 25 6z m313 -33 c9 -9 17 -30 17 -46 0 -38 -48 -83
-162 -156 -46 -29 -128 -83 -183 -122 -110 -76 -369 -252 -419 -284 -29 -18
-131 -85 -195 -127 -36 -25 -61 -22 -94 7 -50 47 -41 58 147 186 252 171 405
279 490 344 128 98 269 197 301 211 34 15 72 10 98 -13z m2514 -29 c-3 -3 -12
-4 -19 -1 -8 3 -5 6 6 6 11 1 17 -2 13 -5z m-1189 -158 c171 -66 308 -152 428
-271 127 -125 190 -241 220 -405 52 -287 -37 -541 -266 -763 -58 -56 -123
-111 -145 -122 -22 -11 -76 -39 -120 -63 -123 -67 -289 -119 -420 -132 -217
-20 -391 -9 -500 34 -22 8 -60 20 -85 26 -75 19 -220 106 -328 198 -95 81
-181 213 -196 303 l-6 36 62 18 c35 9 73 23 86 32 32 20 44 7 76 -79 34 -91
82 -156 158 -214 72 -54 171 -116 213 -131 46 -18 212 -51 291 -58 85 -9 255
8 361 36 231 60 488 258 573 441 45 97 63 180 63 289 -1 104 -17 173 -62 274
-35 76 -137 205 -198 249 -73 53 -220 124 -298 144 -38 9 -76 21 -82 25 -9 6
-13 36 -13 94 l0 86 50 -7 c28 -4 89 -22 138 -40z m1367 25 c-3 -6 -11 -11
-16 -11 -5 0 -4 6 3 14 14 16 24 13 13 -3z m-1777 -3 c15 -15 16 -124 1 -134
-6 -3 -70 -19 -143 -35 -231 -49 -380 -117 -498 -227 -89 -84 -155 -186 -190
-292 -17 -54 -21 -92 -22 -225 l-1 -160 -55 -8 c-30 -4 -73 -6 -94 -5 -36 3
-40 7 -53 43 -19 53 -11 275 12 360 67 243 237 435 500 565 109 54 191 80 380
123 44 10 151 7 163 -5z m1371 -117 c-1 -13 -2 -13 -6 2 -2 9 -9 17 -14 17 -5
0 -9 5 -9 11 0 8 5 8 15 -1 8 -7 14 -20 14 -29z m38 -18 c11 -10 18 -24 16
-31 -3 -8 -11 -4 -24 12 -30 38 -25 48 8 19z m53 -43 c0 -5 -2 -10 -4 -10 -3
0 -8 5 -11 10 -3 6 -1 10 4 10 6 0 11 -4 11 -10z m95 -81 c28 -26 61 -56 75
-67 14 -11 22 -23 18 -27 -9 -9 -57 30 -89 71 -13 17 -36 38 -51 47 -15 9 -28
21 -28 27 0 15 17 4 75 -51z m132 -130 c1 -14 0 -17 -3 -6 -3 9 -10 17 -15 17
-6 0 -7 -5 -3 -12 4 -7 3 -8 -4 -4 -14 8 -4 38 12 33 6 -2 12 -14 13 -28z
m533 0 c0 -5 -7 -9 -15 -9 -9 0 -12 6 -9 15 6 15 24 11 24 -6z m-483 -25 c14
-14 14 -17 -1 -32 -16 -16 -17 -16 -11 0 5 12 1 20 -9 24 -9 3 -16 10 -16 15
0 14 20 11 37 -7z m104 -91 c35 -32 91 -84 123 -115 33 -32 63 -58 68 -58 4 0
8 -4 8 -8 0 -5 18 -21 40 -38 41 -30 53 -51 23 -40 -9 4 -21 1 -26 -6 -6 -9
-7 -8 -3 5 6 18 -14 47 -32 47 -4 0 -22 16 -38 35 -16 19 -31 35 -35 35 -3 0
-44 39 -92 86 -48 48 -87 83 -87 80 0 -4 -7 -1 -15 8 -8 8 -15 17 -15 20 0 16
23 1 81 -51z m443 50 c4 -5 13 -8 19 -8 5 0 11 -6 13 -13 1 -7 0 -8 -3 -2 -3
6 -12 6 -25 -1 -18 -9 -20 -9 -15 4 3 9 1 18 -6 21 -7 3 -8 5 -1 5 6 1 14 -2
18 -6z m-2537 -63 c26 -6 143 -21 258 -35 195 -23 469 -65 515 -80 50 -16 75
-92 47 -141 -7 -12 -133 -145 -282 -297 -233 -238 -276 -277 -314 -288 -36
-11 -47 -11 -69 2 -53 30 -83 84 -117 206 -37 133 -97 295 -155 425 -48 104
-52 157 -15 193 27 28 56 31 132 15z m-1830 -77 c-8 -7 -37 9 -31 19 3 5 12 4
20 -3 8 -6 13 -14 11 -16z m4598 -46 c-11 -16 -12 -24 -2 -35 10 -13 9 -13
-10 -1 -16 10 -19 16 -10 22 9 7 9 10 -1 14 -10 4 -10 8 -2 18 6 8 18 11 26 8
12 -4 12 -8 -1 -26z m-5299 -8 c33 -31 30 -69 -9 -121 -67 -89 -67 -90 -67
-200 0 -127 -11 -169 -61 -234 -21 -28 -39 -53 -39 -56 0 -3 22 -8 49 -12 59
-8 117 -45 246 -159 49 -44 142 -125 205 -181 242 -211 720 -652 1000 -921 63
-61 142 -135 175 -165 33 -30 157 -147 275 -261 218 -209 316 -300 563 -525
75 -69 137 -128 137 -130 0 -16 -78 -104 -92 -104 -21 0 -210 163 -388 336
-69 67 -159 152 -199 190 -144 133 -508 480 -776 739 -148 143 -324 310 -390
370 -66 60 -170 157 -230 215 -123 117 -241 223 -315 281 -75 60 -545 530
-569 569 -38 63 -32 77 87 187 217 202 325 251 398 182z m1416 -6 c47 -45 38
-66 -44 -115 -103 -61 -655 -436 -723 -492 -31 -25 -62 -46 -68 -46 -19 0 -57
43 -57 65 0 25 45 70 120 119 30 20 114 77 185 126 72 50 207 143 300 206 94
63 185 126 204 140 43 30 49 30 83 -3z m-800 -22 c28 -25 33 -36 33 -76 0 -41
-4 -51 -37 -80 -117 -108 -297 2 -218 133 25 41 49 51 127 51 56 1 66 -2 95
-28z m4718 -21 c0 -5 -2 -10 -4 -10 -3 0 -8 5 -11 10 -3 6 -1 10 4 10 6 0 11
-4 11 -10z m70 -61 c0 -6 -4 -7 -10 -4 -5 3 -10 11 -10 16 0 6 5 7 10 4 6 -3
10 -11 10 -16z m-3783 -61 c-3 -7 -5 -2 -5 12 0 14 2 19 5 13 2 -7 2 -19 0
-25z m3303 2 c0 -5 -2 -10 -4 -10 -3 0 -8 5 -11 10 -3 6 -1 10 4 10 6 0 11 -4
11 -10z m770 -19 c0 -6 -4 -13 -10 -16 -5 -3 -10 1 -10 9 0 9 5 16 10 16 6 0
10 -4 10 -9z m-5407 -31 c50 -40 45 -147 -10 -189 -50 -40 -153 -17 -183 40
-21 39 -6 100 34 136 30 28 43 33 85 33 34 0 56 -6 74 -20z m1337 10 c0 -5 -5
-10 -11 -10 -5 0 -7 5 -4 10 3 6 8 10 11 10 2 0 4 -4 4 -10z m3908 -25 c-3 -3
-9 2 -12 12 -6 14 -5 15 5 6 7 -7 10 -15 7 -18z m30 -20 c-3 -3 -9 2 -12 12
-6 14 -5 15 5 6 7 -7 10 -15 7 -18z m98 -15 c-11 -24 -11 -24 -14 -2 -2 12 -8
20 -13 17 -5 -4 -9 -2 -9 3 0 6 11 9 24 8 21 -1 22 -3 12 -26z m-626 10 c8 -5
11 -10 5 -10 -5 0 -17 5 -25 10 -8 5 -10 10 -5 10 6 0 17 -5 25 -10z m684 -6
c9 -24 2 -26 -12 -4 -7 11 -8 20 -3 20 5 0 12 -7 15 -16z m-151 -19 c-3 -9 -8
-14 -10 -11 -3 3 -2 9 2 15 9 16 15 13 8 -4z m47 -21 c0 -4 -3 -4 -7 -1 -3 4
-12 2 -20 -4 -9 -9 -13 -8 -13 0 0 6 4 11 10 11 5 0 6 8 3 18 -6 16 -6 16 10
0 9 -9 17 -20 17 -24z m18 11 c-3 -3 -9 2 -12 12 -6 14 -5 15 5 6 7 -7 10 -15
7 -18z m62 15 c0 -5 -5 -10 -11 -10 -5 0 -7 5 -4 10 3 6 8 10 11 10 2 0 4 -4
4 -10z m75 -18 c-3 -3 -11 0 -18 7 -9 10 -8 11 6 5 10 -3 15 -9 12 -12z m-70
-35 c1 -7 -3 -15 -8 -18 -4 -3 -1 -12 8 -19 13 -11 14 -10 9 5 -6 14 -4 16 6
10 10 -6 12 -4 6 11 -6 15 -5 17 5 7 17 -17 24 -16 43 3 15 14 16 14 16 0 0
-9 5 -16 10 -16 6 0 10 -6 10 -14 0 -9 -11 -13 -32 -12 -21 1 -40 -6 -56 -21
-14 -13 -28 -23 -33 -23 -16 0 -67 76 -59 89 4 8 13 10 19 7 6 -4 19 -3 28 3
19 10 28 6 28 -12z m125 19 c0 -3 -4 -8 -10 -11 -5 -3 -10 -1 -10 4 0 6 5 11
10 11 6 0 10 -2 10 -4z m-4448 -23 c33 -29 23 -61 -28 -91 -45 -26 -249 -161
-387 -255 -37 -25 -87 -58 -111 -72 l-44 -26 -21 28 c-42 53 -40 55 192 209
71 47 156 107 190 133 111 86 172 108 209 74z m4238 7 c0 -5 -4 -10 -10 -10
-5 0 -10 5 -10 10 0 6 5 10 10 10 6 0 10 -4 10 -10z m-6175 -162 c28 -43 143
-159 363 -369 103 -99 120 -119 107 -129 -12 -10 -15 -10 -15 1 0 8 -71 83
-158 169 -179 176 -289 294 -315 339 -27 45 -14 38 18 -11z m5900 -38 c3 -6
-1 -7 -9 -4 -18 7 -21 14 -7 14 6 0 13 -4 16 -10z m785 0 c0 -5 -4 -10 -10
-10 -5 0 -10 5 -10 10 0 6 5 10 10 10 6 0 10 -4 10 -10z m-298 -18 c117 -76
368 -321 368 -358 0 -43 -45 -93 -146 -165 -55 -40 -122 -93 -224 -177 -65
-54 -93 -64 -138 -48 -75 27 -92 43 -92 91 0 35 8 54 43 102 24 32 59 86 78
120 l33 60 -47 116 c-26 64 -47 124 -47 133 0 33 34 87 73 115 46 34 62 35 99
11z m-427 -33 c11 -16 1 -19 -13 -3 -7 8 -8 14 -3 14 5 0 13 -5 16 -11z m735
1 c0 -5 -4 -10 -10 -10 -5 0 -10 5 -10 10 0 6 5 10 10 10 6 0 10 -4 10 -10z
m-624 -68 c-4 -3 -11 0 -15 7 -7 11 -11 10 -19 -5 -6 -10 -13 -16 -17 -12 -4
3 1 15 11 26 15 18 19 19 32 6 8 -8 11 -18 8 -22z m714 16 c0 -5 4 -7 8 -4 4
2 14 -4 20 -15 12 -18 11 -19 -7 -10 -11 6 -23 16 -26 21 -3 6 -12 10 -18 10
-7 0 0 -11 15 -25 16 -13 22 -25 16 -27 -8 -3 -9 -11 -3 -24 7 -17 8 -18 12
-1 3 9 9 15 14 11 6 -4 6 -11 -2 -20 -13 -15 1 -20 17 -5 5 6 15 3 24 -7 13
-14 12 -15 -3 -9 -9 3 -17 2 -17 -4 0 -6 9 -13 21 -16 11 -3 18 -11 15 -19 -3
-8 0 -11 10 -7 7 3 14 0 14 -6 0 -18 -28 -25 -45 -11 -7 6 -11 18 -8 26 3 8
-3 17 -13 21 -11 4 -31 19 -45 33 -24 24 -25 28 -10 39 15 11 15 12 -1 7 -13
-4 -18 0 -18 15 0 12 -4 17 -11 13 -8 -4 -8 -1 0 14 11 21 41 21 41 0z m-4928
-35 c15 -15 28 -34 28 -43 0 -10 -34 -39 -82 -70 -46 -29 -126 -84 -180 -121
-128 -91 -142 -97 -168 -74 -11 10 -20 26 -20 36 0 36 72 101 187 169 23 14
76 49 118 78 42 28 79 52 83 52 3 0 19 -12 34 -27z m4242 8 c-5 -5 -20 -12
-34 -16 -23 -6 -22 -5 5 13 29 19 48 21 29 3z m823 -83 c-3 -8 -6 -5 -6 6 -1
11 2 17 5 13 3 -3 4 -12 1 -19z m-1356 -35 c13 -16 12 -17 -3 -4 -10 7 -18 15
-18 17 0 8 8 3 21 -13z m1387 -19 c25 -17 29 -39 8 -47 -9 -4 -12 -14 -9 -26
4 -16 1 -21 -16 -21 -12 0 -21 6 -21 15 0 8 -5 15 -11 15 -5 0 -7 -4 -4 -10 3
-5 -1 -10 -9 -10 -19 0 -30 17 -16 25 16 10 12 25 -5 19 -8 -4 -15 -3 -15 0 0
4 11 11 25 16 14 5 25 16 25 25 0 19 20 19 48 -1z m-1366 -23 c-3 -9 -1 -12 6
-7 6 3 14 1 18 -5 4 -7 3 -9 -4 -5 -6 3 -13 2 -17 -4 -3 -5 -14 -10 -23 -10
-14 0 -15 2 -3 9 11 7 12 13 3 23 -8 11 -7 14 7 14 12 0 17 -5 13 -15z m-888
-20 c22 -23 26 -33 18 -47 -5 -9 -59 -49 -119 -88 -61 -39 -143 -96 -184 -127
-195 -147 -283 -209 -295 -209 -8 0 -23 19 -35 42 l-21 42 39 35 c36 33 194
148 431 313 54 37 106 68 118 68 11 0 33 -13 48 -29z m-2730 -41 c30 -36 27
-47 -22 -80 -20 -13 -84 -59 -142 -101 -135 -97 -128 -94 -151 -73 -23 20 -24
36 -5 72 22 42 244 212 278 212 9 0 28 -14 42 -30z m3641 -10 c-4 -6 -11 -7
-17 -4 -8 5 -9 1 -4 -12 5 -12 4 -15 -2 -9 -5 6 -13 21 -17 35 -4 17 -3 21 3
12 7 -11 11 -10 16 5 7 17 8 17 17 0 6 -9 7 -22 4 -27z m30 10 c3 -5 1 -10 -4
-10 -6 0 -11 5 -11 10 0 6 2 10 4 10 3 0 8 -4 11 -10z m-260 -39 c19 -11 31
-26 33 -43 4 -32 -39 -71 -199 -182 -63 -44 -157 -114 -209 -155 -52 -42 -117
-92 -145 -112 -27 -19 -73 -51 -101 -71 -28 -20 -65 -43 -83 -53 -31 -16 -34
-15 -53 2 -11 10 -27 30 -34 46 -26 50 -7 72 152 182 32 22 76 56 99 76 81 73
409 313 446 328 27 11 51 6 94 -18z m185 20 c0 -6 -4 -12 -8 -15 -5 -3 -9 1
-9 9 0 8 4 15 9 15 4 0 8 -4 8 -9z m1379 -7 c2 -2 -4 -7 -13 -10 -11 -4 -24 0
-34 10 -16 16 -15 17 13 10 17 -4 32 -8 34 -10z m-13 -36 c4 -5 -4 -8 -17 -6
-12 1 -24 8 -26 15 -5 14 34 6 43 -9z m-18 -38 c15 -24 34 -27 25 -3 -4 10 -2
14 4 10 6 -4 11 -18 11 -32 0 -22 -3 -24 -17 -13 -34 26 -62 58 -49 58 7 0 19
-9 26 -20z m-16 -20 c25 -23 17 -39 -9 -19 -10 7 -7 1 7 -15 22 -25 23 -27 4
-18 -31 17 -52 44 -36 49 6 3 10 9 6 14 -9 16 6 10 28 -11z m-20 -48 c10 -8
28 -16 40 -17 36 -4 38 -4 38 -14 0 -5 -18 -8 -40 -6 -38 3 -46 -2 -41 -29 1
-5 -6 -6 -15 -2 -11 4 -15 2 -11 -8 5 -12 2 -12 -20 -1 -14 8 -30 20 -34 27
-6 9 -9 9 -9 1 0 -6 5 -15 10 -18 6 -3 10 -11 10 -16 0 -6 -5 -7 -12 -3 -7 5
-8 3 -3 -6 5 -8 1 -18 -10 -26 -16 -12 -21 -11 -37 3 -17 16 -17 17 -1 36 18
19 17 19 -5 6 -17 -10 -21 -20 -17 -36 4 -17 1 -23 -10 -23 -10 0 -13 5 -9 11
4 7 1 10 -6 7 -21 -7 -37 -40 -22 -45 6 -3 12 -10 12 -16 0 -8 -3 -8 -11 0 -6
6 -19 9 -28 5 -14 -5 -14 -4 -2 11 10 13 10 17 1 17 -6 0 -14 -9 -17 -20 -5
-18 -23 -19 -23 -1 0 14 208 167 221 164 5 -2 8 0 8 5 -4 26 8 25 43 -6z
m-802 -18 c0 -8 -19 -13 -24 -6 -3 5 1 9 9 9 8 0 15 -2 15 -3z m-4061 -50 c12
-15 21 -30 21 -33 0 -23 -149 -141 -176 -141 -7 0 -15 16 -18 35 -10 50 18
101 73 136 56 36 74 36 100 3z m-1341 -47 c26 -23 74 -65 107 -92 32 -28 113
-102 180 -166 66 -63 166 -156 222 -206 56 -51 116 -108 134 -127 l31 -36 -48
-53 c-216 -236 -305 -390 -347 -603 l-20 -102 -31 15 c-17 7 -48 21 -68 30
-23 10 -39 24 -43 40 -3 13 -11 23 -18 22 -22 -3 -37 1 -34 9 5 16 -39 91 -55
96 -10 2 -18 11 -18 20 0 9 -7 16 -15 16 -22 0 -71 47 -85 81 -7 16 -17 29
-22 29 -5 0 -24 15 -42 33 -42 41 -56 51 -94 71 -18 9 -32 21 -32 27 0 5 -16
17 -35 25 -20 8 -38 21 -41 29 -3 7 -18 17 -34 20 -15 3 -36 15 -46 26 -9 10
-21 19 -25 19 -5 0 -10 -35 -12 -77 -2 -48 -4 -24 -5 62 -5 328 59 531 212
671 69 64 208 164 227 164 6 0 31 -19 57 -43z m6127 -12 c-11 -8 -25 -19 -32
-24 -8 -7 -15 -5 -24 5 -10 12 -9 13 3 9 8 -3 26 3 39 14 13 10 26 17 29 14 3
-2 -4 -11 -15 -18z m-4516 -19 c23 -24 23 -25 5 -49 -27 -33 -76 -74 -177
-146 -125 -90 -171 -98 -153 -27 11 44 245 246 285 246 10 0 28 -11 40 -24z
m4317 -42 c-3 -8 0 -11 10 -7 10 4 12 0 8 -13 -6 -16 -2 -15 19 5 33 30 36 19
3 -14 -22 -22 -25 -22 -41 -7 -16 15 -16 14 1 -13 l18 -30 -22 19 c-13 12 -22
14 -22 7 0 -7 -5 -9 -11 -5 -8 5 -8 9 1 14 9 6 10 12 1 26 -11 18 -11 18 -9
-1 2 -13 -2 -19 -11 -17 -8 2 -20 1 -27 -2 -19 -7 3 -56 25 -56 9 0 4 -7 -12
-15 -25 -13 -32 -13 -58 0 -16 9 -29 20 -29 25 0 14 13 13 28 -2 6 -6 22 -13
34 -15 13 -2 18 0 12 4 -6 5 -16 17 -23 28 -11 19 -12 18 -6 -5 6 -24 6 -25
-10 -5 -15 19 -14 21 12 43 15 12 33 20 40 18 7 -3 15 4 18 14 4 11 12 17 21
13 7 -3 14 0 14 7 0 6 5 8 11 5 6 -4 8 -13 5 -21z m-559 -56 c-3 -8 -6 -5 -6
6 -1 11 2 17 5 13 3 -3 4 -12 1 -19z m501 -6 c6 -18 -15 -14 -22 4 -4 10 -1
14 6 12 6 -2 14 -10 16 -16z m-2532 -28 c34 -44 29 -54 -52 -109 -32 -22 -106
-74 -164 -116 -58 -42 -127 -91 -155 -108 l-50 -32 -18 41 c-22 50 -15 65 55
116 29 21 87 63 128 93 82 62 211 149 222 150 4 1 19 -15 34 -35z m-1296 -19
c16 -47 -7 -82 -93 -139 -45 -30 -125 -86 -178 -124 -52 -38 -109 -77 -127
-86 -42 -22 -95 -20 -123 3 -24 19 -24 20 -6 54 11 20 41 48 73 68 30 19 90
59 132 90 201 145 303 187 322 134z m3750 -15 c0 -6 -4 -10 -10 -10 -5 0 -6
-8 -3 -17 7 -17 6 -17 -11 0 -20 20 -36 22 -36 5 0 -6 -2 -9 -5 -6 -13 13 8
38 29 33 11 -2 15 -2 9 1 -7 3 -13 10 -13 15 0 6 8 5 20 -1 11 -6 20 -15 20
-20z m-322 -50 c32 -20 38 -30 25 -44 -13 -13 -13 -50 -1 -58 10 -6 10 -8 0
-8 -8 0 -16 9 -19 20 -3 11 -7 20 -9 20 -7 0 -119 -93 -122 -101 -2 -5 -9 -9
-15 -9 -13 -1 -92 -57 -289 -206 -73 -56 -167 -124 -208 -152 -41 -28 -113
-81 -160 -116 -80 -62 -289 -217 -350 -261 -15 -11 -118 -88 -228 -172 -231
-175 -233 -177 -559 -400 -45 -32 -87 -53 -103 -53 -31 0 -65 32 -57 54 6 14
54 53 149 122 141 102 532 391 744 551 72 54 211 157 308 228 98 72 233 171
300 220 66 50 184 135 261 189 77 55 169 121 205 148 36 26 72 48 80 48 8 0
30 -9 48 -20z m232 -5 c19 -23 8 -25 -14 -4 -11 11 -15 19 -9 19 6 0 16 -7 23
-15z m-2971 -31 c41 -52 23 -81 -104 -166 -99 -67 -251 -178 -415 -303 -148
-112 -169 -122 -205 -94 -41 33 -34 69 23 121 27 23 68 57 93 73 42 29 141 99
424 302 71 51 137 93 147 93 9 0 26 -12 37 -26z m2935 10 c9 -24 2 -26 -12 -4
-7 11 -8 20 -3 20 5 0 12 -7 15 -16z m-24 -15 c0 -6 -4 -7 -10 -4 -5 3 -10 11
-10 16 0 6 5 7 10 4 6 -3 10 -11 10 -16z m-77 -25 c-7 -19 -23 -18 -23 1 0 8
-4 15 -10 15 -5 0 -10 -6 -10 -14 0 -8 -5 -18 -10 -21 -6 -4 -8 3 -6 17 3 13
5 26 5 30 1 4 14 2 30 -3 20 -7 28 -15 24 -25z m-3350 -47 c10 -6 19 -25 20
-41 2 -26 -11 -37 -173 -148 -96 -66 -191 -128 -212 -138 l-36 -19 -16 24
c-24 37 -20 70 12 95 71 55 233 169 287 202 64 40 91 46 118 25z m1353 -8 c3
-6 -18 -34 -47 -62 -94 -91 -312 -267 -337 -274 -29 -7 -75 17 -80 42 -2 10
11 33 30 52 41 43 281 216 328 236 42 18 96 21 106 6z m241 -35 c79 -30 68
-80 -34 -155 -31 -23 -99 -76 -152 -116 -93 -73 -235 -173 -245 -173 -12 0
-66 84 -66 102 0 10 23 36 56 61 31 23 112 87 181 142 120 96 201 155 212 155
3 0 25 -7 48 -16z m1743 2 c0 -3 -4 -8 -10 -11 -5 -3 -10 -1 -10 4 0 6 5 11
10 11 6 0 10 -2 10 -4z m-105 -56 c4 -6 -1 -7 -11 -3 -12 4 -15 3 -10 -5 4 -7
2 -12 -3 -12 -12 0 -14 13 -4 23 9 10 21 9 28 -3z m-65 -30 c0 -5 -2 -10 -4
-10 -3 0 -8 5 -11 10 -3 6 -1 10 4 10 6 0 11 -4 11 -10z m-2555 -40 c31 -60
30 -61 -251 -255 -56 -38 -153 -109 -215 -156 -158 -120 -163 -123 -188 -109
-31 16 -37 57 -14 88 11 15 80 71 154 125 74 53 170 123 213 155 134 97 260
181 273 182 7 0 19 -13 28 -30z m1564 -24 c42 -45 29 -61 -144 -178 -255 -173
-263 -178 -279 -178 -19 0 -36 30 -36 66 0 36 36 68 199 179 221 151 222 151
260 111z m-1385 -201 c34 -51 42 -42 -253 -258 -119 -87 -146 -94 -168 -40
-12 29 -11 34 13 62 38 46 350 259 380 260 7 1 19 -10 28 -24z m-2125 -68 c22
-29 75 -84 118 -122 42 -39 111 -104 153 -145 177 -174 777 -738 848 -796 l26
-21 -22 -12 c-18 -10 -21 -9 -15 5 5 13 2 15 -18 9 -14 -4 -19 -3 -12 2 9 6
-32 51 -135 149 -81 77 -167 158 -191 180 -25 21 -95 87 -155 145 -61 59 -136
128 -166 155 -30 27 -149 143 -264 258 -191 190 -211 207 -223 190 -7 -10 -13
-14 -13 -9 0 5 -5 4 -11 -2 -6 -6 -18 -9 -25 -6 -8 3 -21 0 -29 -7 -18 -15
-31 -7 -20 10 8 13 95 70 107 70 4 0 25 -24 47 -53z m4086 -17 c-3 -5 -12 -10
-18 -10 -7 0 -6 4 3 10 19 12 23 12 15 0z m-1750 -25 c14 -13 25 -35 25 -48 0
-34 -97 -123 -250 -232 -69 -48 -140 -101 -158 -116 -39 -35 -58 -36 -89 -7
-34 32 -30 74 10 109 29 26 310 240 389 297 39 28 43 28 73 -3z m619 -77 c9
-12 16 -30 16 -39 0 -22 -63 -77 -220 -189 -69 -50 -159 -117 -202 -150 -42
-33 -79 -60 -82 -60 -13 0 -57 83 -51 98 5 16 92 83 240 187 31 22 98 70 148
107 51 37 102 68 114 68 12 0 29 -10 37 -22z m-4317 -70 c-3 -8 -6 -5 -6 6 -1
11 2 17 5 13 3 -3 4 -12 1 -19z m6939 7 c19 -14 19 -14 -1 -16 -11 -1 -23 -1
-27 0 -5 0 -8 -3 -8 -9 0 -5 13 -10 29 -10 24 0 29 -4 27 -23 -1 -16 -6 -23
-17 -20 -8 3 -21 -3 -28 -11 -18 -21 -34 -20 -49 4 -7 11 -8 20 -3 20 5 0 12
-6 14 -12 4 -9 8 -10 14 -2 4 6 17 16 28 22 17 10 17 11 3 12 -9 0 -20 -4 -23
-10 -3 -5 -11 -10 -16 -10 -6 0 -7 6 -2 13 7 12 9 17 11 50 2 21 22 22 48 2z
m-63 -26 c4 -15 0 -23 -13 -26 -10 -3 -21 -12 -23 -22 -3 -9 -5 -3 -6 12 -1
25 2 28 22 22 18 -6 20 -5 10 6 -15 15 -17 29 -4 29 5 0 11 -9 14 -21z m67
-88 c0 -11 5 -23 10 -26 6 -3 10 -14 10 -23 -1 -15 -2 -15 -15 2 -18 24 -30
15 -16 -12 15 -29 14 -36 -4 -18 -8 8 -15 22 -15 31 0 12 -6 16 -19 12 -14 -3
-18 -1 -14 10 3 8 14 13 24 10 11 -3 22 -1 25 4 3 5 0 9 -6 9 -6 0 -8 5 -5 10
10 17 25 11 25 -9z m17 -3 c-3 -8 -6 -5 -6 6 -1 11 2 17 5 13 3 -3 4 -12 1
-19z m-87 -8 c0 -5 -8 -10 -17 -10 -15 0 -16 2 -3 10 19 12 20 12 20 0z
m-3973 -71 c15 -5 52 -27 81 -47 72 -49 95 -95 95 -187 -1 -80 -20 -133 -59
-164 -53 -41 -68 -22 -54 66 22 132 13 158 -76 223 -94 70 -85 146 13 109z
m3953 7 c0 -2 -7 -7 -16 -10 -8 -3 -12 -2 -9 4 6 10 25 14 25 6z m46 -17 c22
2 44 -12 44 -26 0 -14 -3 -14 -20 2 -11 10 -20 15 -20 10 0 -4 -7 -2 -15 5 -8
7 -15 18 -15 24 0 7 4 6 9 -2 4 -8 12 -13 17 -13z m-21 -19 c3 -5 1 -10 -4
-10 -6 0 -11 5 -11 10 0 6 2 10 4 10 3 0 8 -4 11 -10z m-35 -20 c0 -5 -4 -10
-10 -10 -5 0 -10 5 -10 10 0 6 5 10 10 10 6 0 10 -4 10 -10z m70 0 c0 -5 -2
-10 -4 -10 -3 0 -8 5 -11 10 -3 6 -1 10 4 10 6 0 11 -4 11 -10z m-40 -62 c0
-6 -6 -6 -14 1 -11 9 -15 9 -19 -1 -2 -7 -8 -10 -12 -6 -4 4 -1 13 6 21 14 15
39 5 39 -15z m24 6 c3 -8 2 -12 -4 -9 -6 3 -10 10 -10 16 0 14 7 11 14 -7z
m-59 -34 c3 -6 -1 -7 -9 -4 -18 7 -21 14 -7 14 6 0 13 -4 16 -10z m-27 -25
c-3 -3 -9 2 -12 12 -6 14 -5 15 5 6 7 -7 10 -15 7 -18z m-3068 -470 c30 -15
60 -61 60 -89 0 -9 -46 -51 -102 -93 -56 -43 -123 -96 -148 -119 -55 -50 -203
-148 -256 -170 -61 -26 -133 -15 -196 29 -68 47 -236 198 -259 233 -25 38 -11
61 74 125 69 53 71 54 149 58 101 4 125 -6 197 -86 68 -75 60 -76 167 13 122
101 239 138 314 99z m150 -215 c-14 -11 -30 -24 -37 -30 -16 -13 -23 -13 -23
3 0 6 15 20 33 29 44 23 57 22 27 -2z m-1205 -31 c8 -15 15 -35 15 -43 0 -8
30 -41 67 -73 37 -32 115 -103 173 -158 58 -55 126 -111 151 -124 34 -18 47
-31 47 -47 0 -36 -27 -38 -42 -4 -7 17 -15 27 -19 24 -4 -4 -9 1 -13 10 -3 9
-10 14 -15 11 -4 -3 -22 8 -38 26 -16 17 -35 28 -40 24 -6 -3 -11 1 -11 10 0
20 -100 126 -112 119 -4 -3 -8 -1 -8 4 0 5 -11 14 -25 20 -14 6 -25 17 -25 24
0 7 -10 18 -22 23 -13 6 -23 15 -23 20 0 6 -17 27 -37 48 -34 33 -39 36 -67
26 -41 -15 -157 -140 -208 -224 -22 -39 -62 -123 -88 -188 -64 -166 -86 -320
-88 -637 -2 -217 -3 -235 -20 -238 -27 -5 -82 59 -98 115 -23 81 -18 342 10
503 44 255 153 505 264 607 97 89 217 166 243 156 8 -3 21 -18 29 -34z m1135
-5 c0 -8 -4 -12 -10 -9 -5 3 -10 10 -10 16 0 5 5 9 10 9 6 0 10 -7 10 -16z
m126 -1090 c118 -27 131 -44 57 -75 -105 -44 -167 -92 -249 -193 -27 -32 -50
-54 -52 -48 -8 25 143 332 164 332 7 0 43 -7 80 -16z"/>
<path d="M4810 6960 c0 -5 5 -10 11 -10 5 0 7 5 4 10 -3 6 -8 10 -11 10 -2 0
-4 -4 -4 -10z"/>
<path d="M5170 6641 c0 -5 9 -13 20 -16 11 -3 20 -11 20 -16 0 -5 5 -9 11 -9
8 0 7 5 -1 16 -18 21 -50 37 -50 25z"/>
<path d="M5390 6456 c0 -2 12 -12 28 -21 l27 -18 -19 21 c-17 20 -36 29 -36
18z"/>
<path d="M6440 5536 c0 -2 7 -9 15 -16 9 -7 15 -8 15 -2 0 5 -7 12 -15 16 -8
3 -15 4 -15 2z"/>
<path d="M6548 5440 c12 -11 26 -20 33 -20 6 0 0 9 -14 20 -14 11 -29 20 -33
20 -4 0 2 -9 14 -20z"/>
<path d="M6600 5401 c0 -5 7 -12 16 -15 14 -5 15 -4 4 9 -14 17 -20 19 -20 6z"/>
<path d="M6680 5335 c13 -14 26 -25 28 -25 3 0 -5 11 -18 25 -13 14 -26 25
-28 25 -3 0 5 -11 18 -25z"/>
<path d="M6720 5306 c0 -4 15 -20 33 -36 25 -23 29 -32 18 -39 -10 -6 -10 -10
-1 -16 13 -8 17 -6 22 16 1 8 -14 30 -34 48 -21 18 -38 30 -38 27z"/>
<path d="M7013 5493 c-15 -5 -17 -23 -4 -23 5 0 11 7 15 15 3 8 4 15 3 14 -1
0 -8 -3 -14 -6z"/>
<path d="M6970 5481 c0 -17 46 -64 58 -60 6 2 -4 19 -23 37 -19 18 -35 28 -35
23z"/>
<path d="M7676 4991 c-4 -6 -3 -11 3 -11 5 0 13 -9 16 -20 3 -11 11 -20 17
-20 5 0 7 8 4 17 -4 9 -1 20 6 24 7 4 9 11 5 16 -5 4 -12 1 -18 -7 -7 -13 -10
-13 -18 -1 -6 9 -11 10 -15 2z"/>
<path d="M7590 4720 c0 -5 5 -10 11 -10 5 0 7 5 4 10 -3 6 -8 10 -11 10 -2 0
-4 -4 -4 -10z"/>
<path d="M4077 2129 c4 -13 8 -18 11 -10 2 7 -1 18 -6 23 -8 8 -9 4 -5 -13z"/>
<path d="M4409 7836 c7 -8 10 -20 6 -26 -7 -12 -3 -12 19 -4 9 3 16 10 16 16
0 5 -4 6 -10 3 -5 -3 -10 -2 -10 3 0 6 -7 13 -16 16 -14 5 -15 4 -5 -8z"/>
<path d="M3499 7720 l-24 -20 27 13 c16 6 28 15 28 20 0 11 -6 9 -31 -13z"/>
<path d="M3444 7685 c-10 -8 -14 -14 -9 -15 15 0 40 18 34 24 -3 3 -14 -1 -25
-9z"/>
<path d="M6149 6424 c30 -27 64 -55 75 -62 30 -20 -63 65 -99 90 -16 11 -6 -1
24 -28z"/>
<path d="M6380 6236 c0 -2 8 -10 18 -17 15 -13 16 -12 3 4 -13 16 -21 21 -21
13z"/>
<path d="M6744 5921 c20 -22 26 -25 26 -13 0 4 -10 13 -22 21 -23 14 -23 14
-4 -8z"/>
<path d="M6800 5876 c0 -2 8 -10 18 -17 15 -13 16 -12 3 4 -13 16 -21 21 -21
13z"/>
<path d="M6920 5787 c0 -1 21 -20 48 -42 l47 -39 -35 41 c-19 23 -41 42 -47
42 -7 1 -13 0 -13 -2z"/>
<path d="M7075 5650 c10 -11 20 -20 23 -20 3 0 -3 9 -13 20 -10 11 -20 20 -23
20 -3 0 3 -9 13 -20z"/>
<path d="M7196 5507 c3 -10 9 -15 12 -12 3 3 0 11 -7 18 -10 9 -11 8 -5 -6z"/>
<path d="M7246 5462 c18 -15 42 -35 55 -44 12 -10 20 -21 16 -24 -4 -4 -15 3
-26 14 -22 26 -27 27 -35 6 -3 -8 -2 -12 4 -9 5 3 22 -5 37 -19 29 -27 43 -32
43 -16 0 6 -5 10 -11 10 -8 0 -7 6 2 16 12 15 11 18 -5 28 -10 6 -34 23 -53
39 -46 35 -68 35 -27 -1z"/>
<path d="M7210 5463 c1 -14 28 -44 32 -36 3 4 -3 16 -14 26 -10 9 -18 14 -18
10z"/>
<path d="M7355 5380 c4 -6 11 -8 16 -5 14 9 11 15 -7 15 -8 0 -12 -5 -9 -10z"/>
<path d="M7726 5105 c4 -8 11 -15 16 -15 6 0 5 6 -2 15 -7 8 -14 15 -16 15 -2
0 -1 -7 2 -15z"/>
<path d="M7800 5022 c0 -12 19 -26 26 -19 2 2 -2 10 -11 17 -9 8 -15 8 -15 2z"/>
<path d="M7817 4976 c-4 -9 -3 -15 2 -11 5 3 11 -1 14 -7 2 -7 7 -10 11 -7 3
3 0 14 -7 24 -13 16 -14 17 -20 1z"/>
<path d="M7815 4909 c-4 -6 -5 -12 -2 -15 2 -3 7 2 10 11 7 17 1 20 -8 4z"/>
<path d="M7772 4890 c0 -14 2 -19 5 -12 2 6 2 18 0 25 -3 6 -5 1 -5 -13z"/>
<path d="M7796 4877 c3 -10 9 -15 12 -12 3 3 0 11 -7 18 -10 9 -11 8 -5 -6z"/>
<path d="M5740 2876 c-7 -9 -44 -39 -84 -68 -39 -29 -93 -71 -121 -94 -27 -23
-97 -75 -155 -117 -58 -41 -121 -91 -139 -111 -35 -36 -35 -36 -10 -36 29 0
102 44 169 101 160 137 240 197 360 269 29 18 40 30 38 45 -4 25 -40 32 -58
11z"/>
</g>
</svg>
