<?xml version="1.0" standalone="no"?>
<!DOCTYPE svg PUBLIC "-//W3C//DTD SVG 20010904//EN"
 "http://www.w3.org/TR/2001/REC-SVG-20010904/DTD/svg10.dtd">
<svg version="1.0" xmlns="http://www.w3.org/2000/svg"
 width="288.000000pt" height="288.000000pt" viewBox="0 0 288.000000 288.000000"
 preserveAspectRatio="xMidYMid meet">

<g transform="translate(0.000000,288.000000) scale(0.100000,-0.100000)"
fill="#000000" stroke="none">
<path d="M1665 2745 c-5 -2 -43 -13 -82 -25 -65 -19 -73 -24 -73 -45 0 -16 6
-25 15 -25 32 0 39 -50 40 -281 0 -206 -2 -229 -20 -262 -13 -25 -16 -40 -9
-47 6 -6 46 -13 90 -16 72 -6 87 -3 168 26 154 57 204 133 213 331 9 181 -39
265 -184 322 -43 17 -139 30 -158 22z m122 -86 c85 -41 133 -130 133 -249 0
-182 -78 -291 -208 -294 l-57 -1 -3 270 c-2 245 -1 271 15 283 25 18 71 15
120 -9z"/>
<path d="M2456 2738 c-120 -32 -197 -218 -183 -441 7 -105 38 -181 89 -220 84
-65 288 -74 265 -13 -5 11 -20 16 -50 16 -28 0 -63 10 -97 28 -66 33 -102 93
-108 182 l-4 57 88 7 c89 7 134 24 134 51 0 12 -20 15 -110 15 l-110 0 0 28
c0 42 28 142 51 178 24 40 38 46 119 53 54 5 65 9 68 25 8 42 -62 57 -152 34z"/>
<path d="M370 2711 c-160 -51 -238 -160 -248 -342 -3 -75 -1 -108 13 -150 24
-71 93 -140 158 -158 60 -17 181 -9 228 14 46 23 109 85 109 107 0 29 -34 22
-100 -22 -83 -53 -135 -60 -198 -28 -53 27 -105 95 -123 161 -22 81 12 217 71
289 62 75 179 102 230 53 l26 -24 32 19 c39 24 41 51 6 79 -34 27 -125 28
-204 2z"/>
<path d="M966 2680 c-109 -43 -176 -148 -183 -290 -4 -71 -1 -95 17 -144 27
-70 90 -138 145 -156 48 -16 160 -8 202 14 44 22 99 78 123 125 42 83 45 239
6 333 -51 120 -179 169 -310 118z m154 -72 c67 -34 93 -88 98 -204 4 -77 1
-98 -18 -143 -30 -69 -76 -101 -146 -101 -64 0 -107 27 -147 92 -58 94 -45
246 28 321 57 58 116 69 185 35z"/>
<path d="M205 1566 c-38 -20 -77 -44 -88 -53 -17 -16 -17 -18 14 -47 l31 -29
-4 -216 c-4 -178 -8 -224 -23 -259 -15 -37 -16 -45 -4 -53 23 -15 93 -10 150
10 168 58 250 134 234 218 -7 40 -58 100 -120 141 l-44 29 50 32 c27 18 56 46
64 61 17 33 20 112 5 141 -16 29 -64 49 -133 55 -57 6 -67 3 -132 -30z m153
-44 c46 -30 42 -85 -14 -150 -41 -49 -66 -64 -88 -56 -13 5 -16 24 -16 103 0
53 4 101 8 107 17 26 66 24 110 -4z m-28 -303 c52 -36 100 -94 100 -122 0 -47
-110 -114 -173 -105 -21 3 -22 8 -22 116 0 101 2 115 19 128 26 18 24 19 76
-17z"/>
<path d="M2205 1570 c-28 -29 -28 -30 -14 -72 10 -33 14 -109 14 -315 0 -295
2 -307 50 -285 25 12 25 12 25 142 l0 130 26 0 c26 0 56 -25 225 -187 48 -46
93 -83 100 -83 8 0 33 9 57 20 54 24 53 48 -3 67 -22 7 -71 40 -110 73 -38 33
-98 83 -131 111 l-61 51 91 87 c120 117 184 171 200 171 8 0 19 6 25 14 9 11
5 19 -19 40 -18 14 -40 26 -50 26 -10 0 -83 -69 -170 -160 -84 -88 -156 -160
-161 -160 -13 0 -11 187 2 234 13 45 6 79 -21 106 -27 27 -41 25 -75 -10z"/>
<path d="M896 1530 c-109 -43 -176 -148 -183 -290 -4 -71 -1 -95 17 -144 27
-70 90 -138 145 -156 48 -16 160 -8 202 14 44 22 99 78 123 125 42 83 45 239
6 333 -51 120 -179 169 -310 118z m154 -72 c67 -34 93 -88 98 -204 4 -77 1
-98 -18 -143 -30 -69 -76 -101 -146 -101 -64 0 -107 27 -147 92 -58 94 -45
246 28 321 57 58 116 69 185 35z"/>
<path d="M1626 1530 c-109 -43 -176 -148 -183 -290 -4 -71 -1 -95 17 -144 27
-70 90 -138 145 -156 48 -16 160 -8 202 14 44 22 99 78 123 125 42 83 45 239
6 333 -51 120 -179 169 -310 118z m154 -72 c67 -34 93 -88 98 -204 4 -77 1
-98 -18 -143 -30 -69 -76 -101 -146 -101 -64 0 -107 27 -147 92 -58 94 -45
246 28 321 57 58 116 69 185 35z"/>
<path d="M2478 714 c-56 -17 -68 -32 -42 -51 17 -12 19 -30 23 -145 2 -82 -1
-146 -9 -171 -6 -21 -9 -41 -6 -44 2 -3 31 -5 63 -6 76 -2 168 41 197 92 21
36 34 167 22 215 -11 46 -64 95 -119 111 -60 18 -68 18 -129 -1z m136 -55 c40
-32 59 -77 59 -141 -1 -112 -40 -171 -115 -172 l-43 -1 -3 155 c-1 85 0 160 2
167 8 20 70 15 100 -8z"/>
<path d="M1631 711 c-12 -7 -8 -18 18 -57 17 -27 34 -59 38 -72 11 -47 -4
-124 -41 -194 -37 -74 -36 -98 5 -98 24 0 25 3 61 122 16 57 32 105 34 107 2
3 32 -25 67 -60 35 -36 79 -72 99 -82 75 -36 174 -11 266 67 24 20 47 34 52
31 4 -3 11 -35 15 -72 9 -82 13 -93 35 -93 35 0 41 23 20 78 -23 59 -25 108
-9 200 9 53 9 66 -2 73 -23 14 -31 6 -52 -51 -38 -99 -165 -210 -241 -210 -56
0 -137 73 -242 217 -75 104 -90 115 -123 94z"/>
</g>
</svg>
