<?xml version="1.0" standalone="no"?>
<!DOCTYPE svg PUBLIC "-//W3C//DTD SVG 20010904//EN"
 "http://www.w3.org/TR/2001/REC-SVG-20010904/DTD/svg10.dtd">
<svg version="1.0" xmlns="http://www.w3.org/2000/svg"
 width="1024.000000pt" height="1024.000000pt" viewBox="0 0 1024.000000 1024.000000"
 preserveAspectRatio="xMidYMid meet">

<g transform="translate(0.000000,1024.000000) scale(0.100000,-0.100000)"
fill="#000000" stroke="none">
<path d="M5060 8329 c-76 -5 -126 -14 -180 -34 -41 -15 -83 -27 -92 -28 -9 -1
-14 -5 -12 -9 3 -4 1 -8 -5 -8 -5 0 -12 8 -14 18 -4 13 -5 12 -6 -5 -1 -16 -6
-21 -16 -17 -10 4 -15 0 -15 -11 0 -9 -4 -14 -9 -11 -5 4 -11 2 -13 -3 -1 -4
-43 -32 -93 -60 -49 -28 -101 -60 -115 -71 -25 -19 -25 -19 -9 -64 9 -26 13
-46 8 -46 -5 0 -9 6 -9 14 0 22 -15 27 -36 11 -18 -13 -18 -14 5 -8 22 6 23 5
10 -9 -7 -9 -17 -14 -21 -12 -3 2 -8 1 -11 -3 -2 -5 -2 -2 -1 5 2 6 -1 12 -6
12 -6 0 -10 -6 -10 -12 0 -7 -5 -5 -11 5 -8 14 -8 22 1 30 8 9 10 8 4 -6 -5
-13 -2 -16 10 -11 12 5 13 10 5 26 -6 11 -8 22 -6 25 3 2 8 -5 12 -16 5 -17
10 -19 25 -11 17 9 18 13 4 45 -17 42 -18 48 -2 39 7 -5 8 -3 3 6 -6 10 -4 12
8 7 10 -3 17 -2 17 3 0 19 -16 17 -42 -5 -25 -21 -25 -24 -10 -40 16 -17 16
-17 -10 0 -25 16 -28 16 -34 1 -3 -9 -11 -13 -16 -10 -6 4 -8 -2 -3 -17 5 -18
4 -20 -4 -9 -9 12 -14 12 -38 -6 -15 -11 -47 -31 -70 -44 -24 -13 -43 -28 -43
-32 0 -5 -4 -7 -9 -4 -11 7 -33 -19 -24 -28 4 -4 0 -4 -8 -1 -19 7 -132 -58
-121 -70 4 -5 2 -5 -5 -1 -12 6 -115 -49 -121 -65 -2 -5 -8 -7 -13 -3 -5 3 -9
0 -9 -6 0 -6 -4 -8 -10 -5 -5 3 -10 1 -10 -4 0 -6 -7 -11 -16 -11 -9 0 -12 -5
-8 -12 4 -6 3 -8 -3 -5 -15 10 -105 -42 -97 -55 4 -7 2 -8 -5 -4 -10 7 -129
-57 -142 -77 -3 -5 -8 -7 -10 -6 -7 5 -318 -175 -314 -182 2 -3 -2 -6 -9 -6
-7 0 -57 -27 -112 -60 -616 -375 -1203 -739 -1349 -836 -213 -142 -332 -249
-437 -391 -82 -110 -101 -147 -139 -261 -33 -100 -33 -101 -37 -333 -2 -141 1
-268 8 -320 14 -106 74 -291 115 -352 33 -49 259 -251 575 -513 113 -94 237
-200 275 -236 130 -123 336 -300 458 -395 67 -52 161 -135 209 -184 49 -48
107 -101 129 -118 23 -16 65 -49 93 -74 28 -25 74 -63 101 -85 54 -42 69 -55
160 -137 86 -78 244 -210 285 -238 56 -39 376 -309 822 -695 342 -296 416
-349 563 -401 72 -25 232 -30 319 -10 88 21 207 77 340 160 58 37 118 71 133
77 15 6 46 29 68 52 23 24 73 58 116 79 42 21 103 59 135 86 33 27 88 69 123
93 35 24 100 69 143 99 219 152 315 218 443 305 77 52 174 118 215 147 95 65
591 400 730 492 58 38 120 82 139 98 18 16 193 135 389 264 544 360 545 362
622 569 56 150 61 226 23 314 -15 35 -34 66 -42 69 -8 3 -11 0 -7 -7 4 -6 0
-11 -9 -11 -9 0 -13 4 -10 10 3 6 -1 10 -9 10 -8 0 -18 5 -22 12 -5 7 -2 9 9
5 9 -3 18 -1 21 6 3 9 5 9 5 0 1 -7 6 -13 12 -13 6 0 -2 17 -18 38 -17 20 -33
45 -36 55 -4 9 -15 17 -26 17 -20 0 -93 29 -74 30 6 0 23 -4 37 -10 44 -16 30
9 -16 31 -75 34 -80 40 -72 99 4 30 15 61 25 71 23 23 23 28 3 68 -11 22 -15
52 -12 97 l3 65 -22 -25 c-12 -14 -27 -26 -33 -26 -22 0 -111 -47 -240 -128
-458 -288 -739 -487 -717 -508 10 -11 240 125 464 273 133 89 288 189 345 223
57 34 112 70 123 81 21 19 21 18 40 -38 19 -54 19 -57 1 -67 -31 -19 -106 -69
-316 -211 -113 -76 -257 -173 -320 -215 -63 -43 -164 -106 -223 -141 -101 -59
-108 -65 -102 -89 4 -14 9 -27 11 -29 13 -13 150 72 609 374 110 73 225 146
256 164 l57 32 7 -38 c4 -21 14 -46 23 -56 14 -16 14 -19 2 -27 -8 -5 -76 -50
-150 -100 -172 -116 -474 -313 -722 -473 -49 -31 -88 -62 -88 -69 0 -25 16
-39 36 -32 29 11 277 163 469 287 94 61 222 143 284 184 l115 74 44 -45 c29
-28 43 -50 39 -60 -6 -14 -426 -296 -849 -569 -101 -65 -217 -141 -258 -170
-42 -29 -186 -125 -320 -213 -614 -405 -943 -622 -1041 -687 -59 -39 -110 -70
-115 -69 -13 4 -33 116 -34 187 0 33 -7 85 -15 115 -8 30 -15 60 -15 66 0 10
65 54 315 213 137 88 173 111 380 252 200 136 270 192 270 214 0 11 -7 21 -15
23 -17 3 -743 -477 -907 -599 l-42 -32 -28 30 c-38 40 -90 66 -118 59 -25 -6
-310 -195 -449 -297 -85 -63 -105 -87 -106 -131 0 -23 4 -28 25 -28 13 0 46
-5 74 -11 43 -9 51 -15 60 -42 19 -57 53 -448 41 -460 -23 -22 -233 -140 -272
-153 -58 -19 -159 -14 -205 10 -72 37 -119 115 -129 214 -16 150 88 390 232
535 64 65 125 108 684 484 25 17 106 70 180 118 74 48 205 134 290 190 85 56
176 115 202 131 26 16 100 62 165 103 65 41 172 108 238 150 66 41 203 129
305 196 102 67 205 134 230 150 25 15 146 99 270 187 230 163 477 327 655 435
104 63 297 163 315 163 5 0 7 -14 4 -32 -5 -33 -5 -32 14 7 10 22 59 82 108
134 l89 95 -1 111 c-1 123 -10 150 -65 200 l-32 30 27 -37 c15 -20 29 -48 32
-63 5 -26 4 -26 -23 -9 -20 11 -23 12 -10 1 10 -8 20 -25 22 -37 4 -19 2 -20
-12 -8 -13 10 -15 10 -9 0 9 -16 -12 -44 -27 -35 -7 4 -8 0 -4 -11 5 -13 3
-17 -7 -13 -8 3 -17 0 -20 -8 -3 -9 -13 -11 -28 -7 -12 3 -17 7 -10 10 6 2 12
8 12 13 0 6 -4 8 -9 5 -5 -3 -15 2 -22 11 -12 15 -12 16 3 11 11 -5 18 0 21
13 5 20 27 27 27 8 0 -5 -4 -7 -10 -4 -5 3 -10 2 -10 -4 0 -23 17 -17 33 10 9
17 11 27 4 22 -6 -4 -19 -8 -28 -8 -9 -1 -27 -11 -39 -23 -16 -15 -26 -18 -31
-11 -4 7 -9 8 -13 1 -3 -6 -15 -8 -26 -5 -37 10 -30 20 10 17 22 -1 42 2 45 7
4 5 1 9 -4 9 -6 0 -11 5 -11 10 0 6 11 8 25 6 14 -3 25 0 25 6 0 5 -6 8 -14 5
-8 -3 -17 1 -20 10 -5 11 -2 14 9 9 10 -4 14 -2 9 5 -4 7 0 9 14 5 29 -9 37
11 15 37 l-18 22 23 -19 c12 -11 25 -17 28 -13 10 10 -42 37 -67 35 -16 -2
-24 2 -24 14 0 9 -9 26 -21 36 -20 19 -21 19 -33 1 -13 -23 1 -59 24 -59 7 0
21 -7 29 -16 20 -20 22 -41 2 -25 -10 8 -16 9 -21 1 -3 -5 -2 -10 2 -10 5 0 9
-9 10 -20 1 -14 -4 -20 -18 -20 -10 0 -19 4 -19 10 0 5 7 7 16 3 14 -5 15 -3
5 15 -14 27 -37 42 -28 19 3 -10 2 -17 -4 -17 -6 0 -7 -4 -4 -10 3 -5 -1 -10
-10 -10 -12 0 -15 6 -10 21 5 15 4 19 -4 15 -6 -4 -11 -5 -11 -2 0 3 12 12 28
21 l27 16 -27 -5 c-34 -7 -58 2 -52 19 3 8 -6 21 -23 30 -15 9 -21 14 -12 11
9 -2 21 0 27 6 13 13 35 0 29 -16 -3 -7 4 -18 15 -25 25 -15 34 -8 15 11 -12
12 -12 17 -1 33 12 16 11 20 -6 32 -12 8 -17 20 -14 31 4 10 3 13 -3 6 -6 -8
-16 -6 -36 6 -19 12 -25 20 -17 25 15 9 -38 38 -57 31 -7 -3 -13 1 -13 10 0 8
-12 20 -26 26 -21 10 -27 9 -35 -3 -8 -10 -9 -8 -4 9 7 25 -6 29 -24 8 -8 -10
-9 -16 -1 -21 5 -3 10 -12 10 -18 0 -7 -5 -5 -10 4 -5 9 -21 20 -35 23 -33 8
-32 31 3 51 l27 16 -35 -7 c-19 -3 -40 -13 -47 -21 -11 -14 -14 -14 -27 0 -9
8 -21 17 -28 19 -6 2 -8 10 -4 17 6 9 12 8 27 -5 15 -13 22 -15 31 -6 9 9 8
12 -4 12 -9 0 -19 4 -22 9 -4 5 4 7 16 3 23 -5 23 -5 4 17 -17 19 -21 20 -28
6 -5 -8 -14 -15 -20 -15 -9 0 -9 3 0 12 18 18 15 26 -18 43 -39 20 -47 19 -25
-5 11 -12 25 -18 34 -15 11 4 10 0 -4 -15 -10 -11 -13 -20 -7 -20 7 0 12 -4
12 -10 0 -18 -28 -11 -52 13 -13 13 -29 22 -36 19 -15 -5 -16 10 -1 25 9 9 6
10 -11 6 -22 -6 -22 -5 -6 19 15 23 15 26 -4 43 -17 16 -20 16 -20 2 0 -9 -4
-19 -10 -22 -5 -3 -7 0 -4 9 7 19 -11 53 -20 37 -4 -6 -2 -11 3 -11 6 0 11 -4
11 -10 0 -5 -7 -7 -15 -4 -11 5 -14 1 -9 -12 5 -15 4 -16 -4 -5 -6 9 -7 23 -2
37 8 19 2 27 -37 58 -49 38 -68 44 -77 24 -3 -7 -4 -4 -1 8 4 15 -2 24 -20 34
-14 7 -25 17 -25 22 0 4 -11 8 -25 8 -15 0 -25 6 -25 15 0 8 -14 22 -31 31
-28 14 -31 14 -26 1 4 -11 1 -14 -8 -11 -8 3 -11 12 -8 19 8 23 -6 38 -23 24
-12 -10 -13 -9 -9 4 8 20 -15 33 -27 16 -8 -11 -9 -10 -4 3 7 22 -13 35 -26
17 -8 -11 -9 -11 -5 2 3 10 -5 27 -19 40 -21 20 -27 21 -35 9 -8 -12 -9 -12
-7 4 2 10 -6 23 -17 30 -11 6 -26 19 -33 29 -8 10 -21 17 -30 16 -32 -3 -41 1
-36 16 8 20 -25 32 -38 14 -7 -11 -9 -9 -5 8 4 18 -6 29 -50 60 -45 31 -56 35
-64 23 -8 -11 -9 -9 -4 8 5 16 1 24 -12 29 -10 4 -23 12 -29 17 -6 6 -36 29
-68 51 -31 22 -77 55 -101 72 -25 18 -50 31 -57 29 -7 -1 -9 -1 -5 2 11 6 -12
32 -28 32 -8 0 -15 4 -17 8 -4 12 -95 72 -107 72 -6 0 -11 4 -11 10 0 8 -95
75 -193 134 -16 10 -25 22 -21 28 4 6 3 8 -4 4 -6 -3 -16 0 -24 7 -30 29 -137
107 -147 107 -6 0 -11 4 -11 9 0 5 -24 24 -52 42 -29 18 -55 36 -58 40 -3 3
-15 11 -28 18 -13 7 -20 17 -16 24 4 7 4 9 0 5 -4 -3 -21 5 -37 19 -16 14 -59
47 -97 72 -73 50 -94 66 -120 94 -9 9 -22 17 -29 17 -7 0 -13 4 -13 10 0 5 -8
7 -17 3 -10 -3 -15 -3 -11 2 10 11 -20 38 -33 29 -8 -4 -9 -3 -5 4 4 6 -6 19
-21 29 -15 10 -30 20 -33 23 -28 31 -144 119 -151 115 -5 -4 -9 1 -9 9 0 8
-16 20 -34 27 -19 7 -33 16 -30 20 2 5 -6 13 -18 20 -20 10 -96 66 -135 99
-16 14 -17 -2 -1 -18 9 -9 9 -12 0 -12 -6 0 -15 8 -21 17 -7 14 -13 15 -33 6
-15 -7 -30 -8 -39 -2 -10 6 -6 9 14 9 26 0 27 1 13 16 -18 18 -22 39 -4 28 7
-4 8 -3 4 5 -6 9 -11 9 -22 0 -11 -9 -14 -8 -14 6 0 13 -3 15 -12 7 -7 -5 -25
-8 -41 -6 -18 2 -25 -1 -21 -8 4 -7 2 -8 -5 -4 -9 6 -9 11 -1 21 6 7 7 21 3
31 -6 16 -5 17 9 4 8 -8 13 -21 11 -27 -7 -19 13 -16 28 5 7 9 10 14 5 10 -4
-4 -20 4 -34 18 -15 13 -35 24 -44 24 -10 0 -18 4 -18 9 0 5 -7 11 -15 15 -10
3 -15 -1 -15 -11 0 -9 3 -13 7 -10 3 4 13 -2 20 -13 8 -11 19 -17 25 -14 7 5
8 2 4 -5 -6 -9 -13 -8 -27 5 -10 9 -19 14 -19 10 0 -4 -6 -1 -14 6 -7 7 -11
20 -9 28 3 11 1 10 -10 -2 -16 -20 -37 -24 -37 -7 0 5 6 7 13 4 6 -4 3 0 -7 9
-10 8 -23 13 -27 10 -5 -3 -18 0 -29 6 -15 8 -20 8 -20 -1 0 -7 -5 -8 -12 -2
-7 5 -60 6 -118 2z m115 -108 c22 -10 96 -56 165 -102 69 -47 142 -95 163
-107 41 -24 48 -49 19 -75 -35 -32 -154 -69 -224 -71 -70 -1 -70 -2 -181 87
l-36 28 -68 -21 c-155 -49 -311 -34 -372 35 -17 20 -31 39 -31 43 0 11 232
144 297 171 107 44 186 47 268 12z m290 -31 c4 -6 12 -7 18 -4 9 5 9 4 1 -6
-13 -14 -58 -4 -49 11 8 12 22 12 30 -1z m159 -98 c3 -5 -1 -9 -9 -9 -8 0 -12
4 -9 9 3 4 7 8 9 8 2 0 6 -4 9 -8z m-1174 -52 c0 -5 -2 -10 -4 -10 -3 0 -8 5
-11 10 -3 6 -1 10 4 10 6 0 11 -4 11 -10z m-70 -40 c0 -15 -29 -19 -40 -5 -8
10 -8 14 2 18 16 5 38 -2 38 -13z m-12 -65 c-3 -3 -9 2 -12 12 -6 14 -5 15 5
6 7 -7 10 -15 7 -18z m32 10 c0 -8 -2 -15 -4 -15 -2 0 -6 7 -10 15 -3 8 -1 15
4 15 6 0 10 -7 10 -15z m-103 -48 c2 -15 -1 -16 -13 -7 -13 12 -18 7 -15 -13
1 -5 -3 -6 -9 -2 -8 5 -8 11 -1 19 6 7 9 15 6 17 -2 3 4 5 14 5 9 0 18 -8 18
-19z m1438 14 c3 -5 2 -12 -3 -15 -5 -3 -9 1 -9 9 0 17 3 19 12 6z m-1525 -26
c10 -12 10 -15 -1 -16 -11 0 -10 -2 1 -7 14 -6 14 -9 -1 -23 -11 -11 -22 -14
-30 -8 -11 7 -11 9 2 9 10 0 15 8 14 23 -2 12 -8 21 -14 19 -7 -1 -10 2 -6 8
9 14 20 13 35 -5z m389 -11 c17 -14 28 -30 25 -36 -8 -13 -272 -185 -374 -243
-47 -27 -130 -78 -185 -114 -55 -35 -219 -138 -365 -229 -368 -229 -526 -328
-590 -372 -49 -33 -225 -140 -484 -295 -46 -27 -90 -56 -99 -63 -14 -12 -18
-8 -35 30 -25 56 -24 57 148 162 161 99 336 209 526 329 282 179 1303 810
1359 840 39 21 38 21 74 -9z m1156 16 c-3 -5 -1 -10 6 -10 7 0 10 -3 6 -6 -9
-9 -28 6 -22 17 4 5 8 9 11 9 3 0 2 -4 -1 -10z m180 -69 c-3 -6 -11 -11 -16
-11 -5 0 -4 6 3 14 14 16 24 13 13 -3z m-240 -79 c55 -37 147 -105 205 -151
57 -46 122 -95 144 -110 38 -24 168 -120 451 -332 66 -50 203 -151 305 -225
214 -155 517 -383 663 -499 56 -44 140 -109 187 -144 47 -36 122 -95 168 -133
l83 -70 -21 -32 c-11 -19 -20 -41 -20 -50 0 -9 -2 -16 -4 -16 -8 0 -120 70
-171 106 -27 20 -39 26 -26 15 13 -12 21 -24 17 -28 -7 -7 -67 33 -79 54 -5 7
-13 11 -18 8 -5 -4 -6 -11 -3 -17 4 -7 2 -8 -5 -4 -6 4 -9 11 -6 16 3 4 -9 20
-26 34 -31 27 -56 35 -43 14 4 -7 3 -8 -4 -4 -11 7 -6 36 7 36 4 0 17 -9 29
-20 12 -11 25 -20 30 -20 5 0 15 -7 22 -16 16 -19 56 -41 46 -26 -13 22 -140
104 -144 93 -2 -7 -13 -6 -33 5 -16 8 -34 12 -39 9 -6 -3 -10 -1 -10 4 0 6 6
11 13 11 10 1 -10 17 -29 23 -4 1 -22 17 -41 35 -23 21 -39 30 -47 24 -7 -6
-18 -2 -28 10 -19 20 -10 26 10 6 6 -6 14 -9 18 -6 3 4 -6 14 -21 24 -23 15
-28 15 -37 3 -8 -12 -9 -11 -5 1 5 16 -16 54 -26 48 -3 -2 -17 7 -32 20 -15
13 -29 21 -32 18 -3 -3 -15 6 -26 20 -10 14 -25 23 -33 20 -9 -3 -11 0 -7 11
5 13 2 15 -11 10 -9 -4 -15 -3 -12 2 6 9 -93 100 -125 115 -11 5 -19 13 -19
17 0 5 -8 6 -17 2 -10 -3 -15 -3 -11 2 4 4 0 14 -10 21 -14 11 -14 13 -2 13 8
1 30 -12 49 -27 19 -15 70 -56 115 -92 44 -36 89 -72 99 -81 9 -8 42 -33 73
-55 31 -21 72 -54 91 -71 19 -18 38 -33 41 -33 4 0 32 -19 62 -41 40 -31 48
-34 30 -14 -14 15 -70 62 -125 103 -55 42 -140 108 -190 147 -129 101 -151
118 -235 180 -73 54 -75 55 -82 33 -4 -16 -6 -18 -7 -5 -1 9 -6 17 -12 17 -5
0 -8 -4 -5 -8 3 -5 -1 -9 -8 -9 -11 0 -12 4 -3 18 6 10 15 15 19 13 4 -3 8 -1
8 4 0 6 -6 12 -13 15 -7 3 -48 33 -91 67 -42 34 -80 59 -84 55 -4 -4 -1 -10 6
-12 6 -3 12 -9 12 -15 0 -6 -6 -5 -15 2 -8 7 -14 19 -13 28 2 8 -3 17 -9 19
-7 3 -13 0 -13 -7 0 -6 -5 -8 -11 -4 -8 5 -8 9 1 14 7 4 -11 24 -51 54 -35 25
-65 43 -68 39 -10 -14 -29 -13 -41 2 -15 18 -34 20 -24 3 4 -7 3 -8 -5 -4 -6
4 -9 12 -5 17 3 6 -4 18 -15 28 -21 19 -29 37 -11 26 16 -10 11 1 -7 16 -11
10 -14 10 -9 2 10 -17 0 -16 -29 3 -14 9 -25 22 -25 29 0 17 -37 48 -48 41
-12 -7 -74 23 -85 41 -4 7 -14 13 -20 13 -15 0 -51 40 -43 47 3 3 11 2 19 -3
7 -5 4 -1 -6 9 -19 17 -20 17 -32 0 -8 -10 -17 -15 -21 -10 -4 4 -2 7 4 7 7 0
12 10 11 23 0 21 -1 21 -9 2 -5 -11 -9 -14 -9 -7 -1 7 -5 10 -11 7 -5 -3 -10
1 -10 10 0 9 5 13 10 10 16 -10 11 1 -7 16 -11 10 -14 10 -9 2 4 -8 2 -13 -6
-13 -19 0 -55 27 -47 35 4 3 14 -1 23 -10 9 -9 16 -12 16 -8 0 5 -14 20 -32
33 -27 20 -30 21 -24 4 4 -10 4 -15 0 -11 -4 4 -13 2 -21 -5 -11 -9 -12 -7 -4
14 12 31 -2 48 -38 48 -18 0 -22 3 -13 9 10 6 10 10 -3 21 -12 10 -15 10 -15
-4 0 -14 -5 -13 -32 6 -18 13 -44 34 -58 48 -14 14 -38 35 -54 48 -34 26 -27
29 12 5 35 -21 18 -5 -32 32 -29 21 -38 24 -33 11 4 -10 3 -15 -3 -11 -6 3
-10 12 -10 20 0 14 -80 78 -88 70 -3 -3 1 -13 9 -23 8 -10 4 -7 -9 6 -12 13
-28 20 -35 17 -6 -4 -4 0 5 8 17 13 17 15 -2 32 -11 10 -33 18 -49 19 -30 1
-33 16 -3 16 9 0 31 9 47 20 51 34 81 26 190 -48z m-850 49 c3 -5 2 -12 -3
-15 -5 -3 -9 1 -9 9 0 17 3 19 12 6z m1170 -52 c-4 -5 -12 -9 -18 -8 -9 0 -8
2 1 6 6 2 9 10 6 15 -4 7 -2 8 5 4 6 -4 9 -12 6 -17z m-900 1 c3 -6 -1 -7 -9
-4 -18 7 -21 14 -7 14 6 0 13 -4 16 -10z m369 -46 c3 -8 2 -12 -4 -9 -6 3 -10
10 -10 16 0 14 7 11 14 -7z m-1831 -191 c-4 -10 -9 -11 -19 -2 -18 15 -18 15
5 15 11 0 17 -5 14 -13z m2808 -76 c-10 -9 -11 -8 -5 6 3 10 9 15 12 12 3 -3
0 -11 -7 -18z m-3056 -85 c-3 -3 -11 0 -18 7 -9 10 -8 11 6 5 10 -3 15 -9 12
-12z m495 -96 c0 -2 -7 -7 -16 -10 -8 -3 -12 -2 -9 4 6 10 25 14 25 6z m300
-24 c14 -11 23 -29 23 -47 0 -33 -28 -59 -108 -101 -27 -14 -99 -57 -160 -94
-60 -37 -155 -93 -210 -125 -55 -31 -144 -84 -198 -116 -54 -32 -101 -59 -104
-59 -3 0 -47 -25 -98 -55 -101 -59 -122 -64 -160 -39 -30 19 -32 45 -7 67 17
16 310 195 454 278 36 21 113 69 170 107 304 202 349 223 398 184z m2507 -28
c-3 -3 -12 -4 -19 -1 -8 3 -5 6 6 6 11 1 17 -2 13 -5z m103 -19 c0 -2 -9 -3
-19 -2 -11 0 -18 5 -15 9 4 6 34 0 34 -7z m34 -13 c2 -4 -5 -9 -17 -9 -17 -2
-19 0 -7 7 18 12 18 12 24 2z m76 -36 c0 -2 -8 -10 -17 -17 -16 -13 -17 -12
-4 4 13 16 21 21 21 13z m-83 -32 c-3 -3 -12 -4 -19 -1 -8 3 -5 6 6 6 11 1 17
-2 13 -5z m-1733 -14 c24 -9 26 -15 26 -65 0 -48 -3 -55 -22 -60 -13 -3 -79
-16 -148 -29 -119 -23 -291 -76 -362 -112 -59 -29 -174 -123 -212 -172 -21
-26 -54 -80 -74 -121 -37 -75 -37 -75 -40 -223 l-4 -147 -31 -6 c-18 -4 -59
-5 -92 -3 -77 4 -85 18 -85 154 0 77 6 121 23 180 91 311 434 545 887 603 93
12 106 12 134 1z m422 -26 c273 -92 494 -252 584 -424 143 -277 68 -586 -199
-811 -116 -98 -280 -182 -464 -235 -192 -55 -486 -69 -652 -30 -208 49 -279
78 -421 172 -136 89 -233 205 -249 296 l-7 36 59 12 c32 7 70 19 85 26 15 8
30 14 33 14 3 0 20 -30 37 -67 44 -96 90 -148 184 -210 116 -75 177 -101 294
-123 211 -40 412 -35 585 15 94 28 239 97 325 155 80 55 186 169 215 232 54
119 68 234 40 342 -29 110 -63 166 -159 261 -83 83 -100 95 -197 138 -93 41
-146 58 -250 81 -33 7 -42 38 -33 108 l7 50 52 -6 c29 -3 88 -18 131 -32z
m1498 -32 c3 -5 -1 -9 -9 -9 -8 0 -12 4 -9 9 3 4 7 8 9 8 2 0 6 -4 9 -8z
m-544 -44 c0 -5 -7 -3 -15 6 -8 8 -15 18 -15 22 0 3 7 1 15 -6 8 -7 15 -17 15
-22z m650 12 c0 -5 -5 -10 -11 -10 -5 0 -7 5 -4 10 3 6 8 10 11 10 2 0 4 -4 4
-10z m-100 -4 c0 -2 -7 -7 -16 -10 -8 -3 -12 -2 -9 4 6 10 25 14 25 6z m-508
-29 c9 -7 14 -18 10 -24 -4 -7 -14 -2 -25 13 -19 26 -12 31 15 11z m178 -135
c61 -48 64 -51 50 -52 -17 0 -120 90 -120 105 0 5 12 -3 28 -16 15 -14 34 -31
42 -37z m585 -42 c-3 -5 -12 -10 -18 -10 -7 0 -6 4 3 10 19 12 23 12 15 0z
m96 -7 c13 -16 12 -17 -3 -4 -10 7 -18 15 -18 17 0 8 8 3 21 -13z m-65 -27 c3
-9 12 -12 22 -8 16 5 16 5 0 -11 -20 -20 -29 -22 -25 -4 1 6 -4 11 -11 9 -8
-1 -11 2 -8 7 4 5 0 12 -6 14 -8 3 -6 6 5 6 10 1 20 -5 23 -13z m-472 -29 c11
-11 11 -17 -2 -33 -13 -16 -14 -17 -9 -1 4 11 1 20 -8 23 -17 7 -20 24 -4 24
6 0 16 -6 23 -13z m549 -34 c-4 -10 -2 -14 5 -9 6 3 13 3 16 -2 2 -4 -6 -8
-19 -8 -24 0 -29 15 -10 28 14 11 15 10 8 -9z m127 -37 c0 -3 -4 -8 -10 -11
-5 -3 -10 -1 -10 4 0 6 5 11 10 11 6 0 10 -2 10 -4z m-2665 -16 c33 -5 148
-19 255 -30 305 -32 521 -67 550 -88 29 -22 38 -73 19 -109 -7 -13 -45 -49
-83 -81 -39 -31 -100 -84 -136 -117 -320 -295 -334 -305 -408 -305 -64 0 -109
59 -151 199 -25 83 -79 210 -147 346 -57 116 -57 152 1 183 25 14 27 14 100 2z
m2685 -25 c7 -9 8 -15 2 -15 -5 0 -12 7 -16 15 -3 8 -4 15 -2 15 2 0 9 -7 16
-15z m-4496 -33 c3 -5 -1 -9 -9 -9 -8 0 -15 4 -15 9 0 4 4 8 9 8 6 0 12 -4 15
-8z m3987 -39 c13 -16 12 -17 -3 -4 -10 7 -18 15 -18 17 0 8 8 3 21 -13z m599
0 c0 -3 -7 -3 -15 1 -16 6 -17 -18 -1 -42 7 -11 4 -11 -13 -1 -12 8 -16 16
-10 20 8 4 7 9 -1 14 -9 6 -9 9 1 15 12 8 39 3 39 -7z m-5276 -14 c14 -11 26
-31 26 -43 0 -19 -27 -66 -50 -86 -3 -3 -16 -18 -28 -34 -19 -25 -22 -41 -22
-125 0 -109 -16 -156 -69 -205 -17 -17 -31 -33 -31 -37 0 -3 20 -9 45 -12 65
-7 125 -41 277 -158 73 -57 169 -130 213 -164 187 -142 516 -405 901 -720 40
-33 117 -96 171 -140 54 -43 204 -167 334 -275 285 -236 450 -371 587 -479 56
-45 102 -83 102 -86 0 -2 -20 -25 -44 -51 l-43 -47 -44 31 c-72 51 -199 151
-314 247 -60 50 -170 140 -245 200 -180 146 -390 320 -586 486 -189 160 -454
379 -574 474 -69 55 -163 131 -210 171 -47 39 -141 113 -210 165 -197 148
-269 207 -350 284 -41 39 -91 82 -110 95 -19 13 -74 60 -122 103 -75 69 -108
114 -108 148 0 5 57 54 128 110 195 155 309 201 376 148z m1410 -10 c42 -33
34 -55 -34 -89 -32 -16 -133 -73 -222 -126 -90 -53 -221 -131 -293 -172 -71
-41 -161 -97 -199 -124 -38 -26 -77 -48 -87 -48 -10 0 -27 12 -38 26 -36 45
-31 49 386 297 54 32 172 103 263 157 91 54 172 99 181 99 9 1 28 -8 43 -20z
m-832 1 c95 -27 90 -135 -8 -176 -46 -19 -98 -17 -143 6 -42 21 -51 36 -51 80
0 73 101 118 202 90z m1035 -142 c-3 -8 -6 -5 -6 6 -1 11 2 17 5 13 3 -3 4
-12 1 -19z m4036 -25 c-6 -15 -4 -16 9 -5 14 11 17 10 23 -8 3 -11 11 -18 16
-15 5 4 9 1 9 -4 0 -17 -18 -13 -30 7 -8 12 -13 13 -16 5 -4 -10 -8 -10 -18 0
-14 12 -10 37 5 37 4 0 5 -8 2 -17z m-5369 -14 c51 -23 55 -107 8 -154 -33
-34 -63 -40 -118 -25 -97 27 -114 120 -31 170 36 22 103 26 141 9z m1336 7 c0
-3 -4 -8 -10 -11 -5 -3 -10 -1 -10 4 0 6 5 11 10 11 6 0 10 -2 10 -4z m3920
-57 c0 -13 -18 -20 -25 -9 -3 5 -1 10 5 10 8 0 8 6 0 23 -11 21 -10 21 4 3 9
-11 16 -23 16 -27z m86 1 c-11 -24 -11 -24 -14 -2 -2 12 -8 20 -13 17 -5 -4
-9 -2 -9 3 0 6 11 9 24 8 21 -1 22 -3 12 -26z m-626 10 c8 -5 11 -10 5 -10 -5
0 -17 5 -25 10 -8 5 -10 10 -5 10 6 0 17 -5 25 -10z m690 -12 c0 -6 -6 -5 -15
2 -8 7 -15 14 -15 16 0 2 7 1 15 -2 8 -4 15 -11 15 -16z m-119 -15 c7 -10 9
-15 5 -11 -5 4 -15 3 -23 -3 -9 -9 -13 -8 -13 0 0 6 5 11 11 11 5 0 7 5 4 10
-10 17 2 11 16 -7z m87 -26 c-1 -2 2 -10 9 -18 7 -9 9 -20 3 -29 -7 -12 -14
-10 -38 13 -38 37 -53 35 -17 -3 16 -16 34 -30 42 -30 17 0 36 37 27 53 -6 8
-3 8 8 -1 22 -17 13 -39 -22 -57 -27 -14 -29 -13 -63 24 -20 22 -38 37 -41 33
-3 -3 -6 -1 -6 5 0 6 18 10 39 9 22 0 37 -5 34 -10 -3 -4 1 -12 8 -17 20 -13
31 -11 22 4 -9 14 -14 41 -6 34 2 -3 3 -7 1 -10z m132 9 c0 -3 -4 -8 -10 -11
-5 -3 -10 -1 -10 4 0 6 5 11 10 11 6 0 10 -2 10 -4z m-4418 -23 c36 -32 23
-49 -84 -106 -57 -30 -173 -96 -258 -147 -213 -127 -215 -128 -240 -105 -42
38 -15 73 100 130 30 15 120 69 200 118 215 135 243 146 282 110z m2163 -3 c3
-6 -1 -7 -9 -4 -18 7 -21 14 -7 14 6 0 13 -4 16 -10z m2221 -10 c8 0 14 -4 14
-8 0 -5 -13 -9 -28 -9 -18 0 -29 6 -29 14 0 8 7 11 14 8 8 -3 21 -5 29 -5z
m-6210 -216 c71 -61 294 -247 348 -289 36 -29 37 -32 20 -45 -10 -8 -15 -10
-11 -3 5 7 -32 44 -95 98 -233 197 -398 353 -398 376 0 7 17 -10 39 -37 21
-27 65 -72 97 -100z m5759 66 c3 -6 -1 -7 -9 -4 -18 7 -21 14 -7 14 6 0 13 -4
16 -10z m74 -16 c17 -14 31 -30 31 -36 0 -6 -7 -5 -16 3 -11 9 -17 10 -23 1
-4 -7 -12 -8 -21 -2 -13 8 -12 10 3 10 23 0 22 8 -5 31 -13 10 -18 18 -11 19
6 0 25 -12 42 -26z m513 -74 c159 -116 258 -207 258 -239 0 -31 -64 -92 -161
-154 -41 -26 -116 -76 -168 -112 -52 -36 -105 -68 -118 -71 -24 -7 -95 16
-128 40 -28 20 -22 72 15 115 17 20 51 67 77 104 l47 68 -47 95 c-49 98 -54
124 -34 161 17 31 88 82 113 83 12 0 78 -41 146 -90z m203 50 c-3 -5 -12 -10
-18 -10 -7 0 -6 4 3 10 19 12 23 12 15 0z m25 -10 c-6 -11 -18 -20 -28 -19
-14 0 -14 2 -2 6 8 3 19 12 23 19 13 22 19 16 7 -6z m-699 -9 c5 8 9 9 9 3 0
-6 -7 -17 -16 -25 -13 -10 -17 -10 -25 2 -14 22 -10 33 7 18 13 -10 17 -10 25
2z m710 -14 c-10 -9 -11 -8 -5 6 3 10 9 15 12 12 3 -3 0 -11 -7 -18z m54 13
c3 -6 -1 -7 -9 -4 -18 7 -21 14 -7 14 6 0 13 -4 16 -10z m-714 -29 c2 2 13 -2
24 -8 19 -11 19 -12 -8 -22 -38 -15 -47 -13 -18 3 l24 13 -27 7 c-16 4 -24 11
-20 17 4 8 9 8 14 -1 4 -6 9 -10 11 -9z m686 5 c-3 -8 1 -17 10 -20 9 -4 13
-9 10 -13 -4 -3 -2 -15 4 -25 8 -15 8 -19 -1 -16 -6 2 -10 6 -9 8 5 11 -23 50
-32 45 -13 -9 -11 9 3 23 16 16 21 15 15 -2z m83 -42 c0 -2 -11 2 -25 8 -14 6
-25 15 -25 20 0 5 11 1 25 -8 14 -9 25 -18 25 -20z m-4949 5 c16 -11 29 -27
29 -34 0 -8 -21 -26 -47 -41 -27 -14 -111 -64 -188 -110 -77 -46 -148 -86
-158 -90 -41 -15 -63 45 -28 82 24 26 195 130 321 196 42 22 36 22 71 -3z
m4924 -29 c3 -5 1 -10 -4 -10 -6 0 -11 5 -11 10 0 6 2 10 4 10 3 0 8 -4 11
-10z m110 -19 c3 -5 1 -12 -5 -16 -5 -3 -10 1 -10 9 0 18 6 21 15 7z m-1388
-16 c0 -8 -4 -12 -9 -9 -5 3 -6 10 -3 15 9 13 12 11 12 -6z m36 -48 c-4 -6 0
-8 10 -4 12 4 14 2 10 -10 -4 -10 -2 -14 5 -9 6 3 14 1 18 -6 4 -7 4 -10 -1
-6 -4 4 -13 4 -19 -1 -6 -4 -20 -11 -31 -14 -19 -7 -19 -7 -1 8 16 12 17 17 5
31 -19 23 -22 49 -3 33 7 -6 11 -16 7 -22z m-859 -36 c33 -35 28 -41 -71 -96
-61 -34 -224 -135 -403 -250 -111 -71 -107 -70 -130 -33 -35 57 -61 33 267
241 180 115 272 167 294 167 8 0 28 -13 43 -29z m2296 14 c7 -9 8 -15 2 -15
-5 0 -12 7 -16 15 -3 8 -4 15 -2 15 2 0 9 -7 16 -15z m-5004 -50 c14 -14 23
-29 20 -34 -3 -5 -50 -36 -103 -68 -54 -33 -122 -75 -151 -93 -45 -29 -55 -32
-77 -22 -32 15 -32 33 0 71 40 47 234 171 268 171 10 0 29 -11 43 -25z m3637
5 c9 -11 8 -11 -7 0 -18 14 -19 13 -14 -7 4 -15 2 -20 -8 -16 -7 2 -10 12 -8
21 5 14 3 14 -6 -1 -9 -14 -9 -22 2 -35 11 -15 11 -16 -3 -4 -17 13 -34 56
-19 47 5 -3 11 -1 14 4 8 13 34 8 49 -9z m-250 -35 c10 -4 22 -16 28 -27 15
-27 -29 -66 -172 -153 -63 -38 -160 -101 -217 -139 -124 -85 -215 -143 -301
-192 -73 -42 -98 -38 -126 16 -23 44 -8 63 101 129 49 30 121 77 159 106 70
52 109 77 285 188 155 97 169 102 243 72z m177 16 c0 -6 -4 -12 -8 -15 -5 -3
-9 1 -9 9 0 8 4 15 9 15 4 0 8 -4 8 -9z m570 5 c0 -2 -8 -10 -17 -17 -16 -13
-17 -12 -4 4 13 16 21 21 21 13z m778 -2 c24 -7 31 -24 9 -24 -15 0 -57 29
-42 30 6 0 20 -3 33 -6z m-8 -68 c0 -8 7 -17 16 -20 12 -5 15 -2 10 9 -3 10
-2 13 5 10 6 -4 8 -13 5 -21 -4 -9 2 -14 16 -14 17 0 18 2 8 15 -22 26 -6 25
17 -1 12 -13 17 -24 11 -24 -6 0 -20 -8 -30 -17 -17 -15 -20 -15 -48 5 -34 25
-48 29 -30 7 18 -21 -4 -19 -23 3 -12 14 -13 19 -2 29 8 7 15 9 17 5 7 -17 65
-50 75 -44 7 4 -5 15 -27 26 -40 19 -60 46 -35 46 8 0 15 -6 15 -14z m-35 -66
c4 -6 14 -8 24 -5 9 3 26 -2 37 -11 18 -15 18 -15 0 -10 -10 4 -25 1 -32 -5
-11 -9 -14 -8 -14 1 0 10 -3 10 -15 0 -16 -14 -10 -34 7 -24 7 4 8 2 4 -4 -5
-9 -13 -9 -28 -1 -18 10 -20 9 -15 -5 5 -14 3 -14 -16 -3 -12 6 -28 19 -35 27
-10 10 -9 7 1 -11 15 -25 15 -26 -9 -23 -13 1 -24 -2 -24 -8 0 -6 7 -8 15 -4
8 3 15 1 15 -5 0 -6 7 -6 20 1 11 6 20 8 20 6 0 -3 -14 -13 -31 -22 -17 -8
-29 -11 -25 -6 3 5 -2 9 -12 8 -9 0 -16 5 -14 12 1 8 -2 11 -8 7 -5 -3 -10 -1
-10 4 0 6 -4 11 -10 11 -14 0 -13 -27 2 -32 6 -2 12 -14 13 -26 1 -11 -2 -19
-7 -16 -5 4 -7 12 -4 20 3 8 -1 14 -9 14 -8 0 -15 5 -15 10 0 6 -8 5 -19 -2
-11 -7 -18 -15 -15 -19 2 -4 -4 -13 -13 -20 -15 -12 -16 -12 -10 3 4 12 2 15
-8 11 -8 -3 -12 -10 -8 -16 4 -6 0 -8 -10 -4 -10 3 -18 2 -18 -3 -1 -6 -2 -16
-4 -22 -1 -7 5 -24 12 -38 13 -23 13 -23 -11 3 -28 30 -33 47 -14 47 6 0 8 3
4 7 -10 10 155 115 171 108 8 -2 12 -1 9 4 -6 9 44 47 57 43 4 -1 7 5 7 13 0
12 4 14 19 5 11 -5 23 -15 26 -20z m-798 -16 c-3 -3 -12 -4 -19 -1 -8 3 -5 6
6 6 11 1 17 -2 13 -5z m-4033 -35 c14 -11 26 -26 26 -33 0 -15 -80 -76 -138
-105 l-42 -22 -10 26 c-19 49 27 115 101 144 33 13 33 13 63 -10z m-1347 -32
c15 -13 57 -44 93 -69 36 -26 124 -95 195 -155 72 -59 166 -134 208 -167 43
-32 104 -82 135 -110 l56 -53 -108 -109 c-171 -173 -243 -290 -282 -456 -9
-42 -22 -79 -28 -81 -18 -7 -126 47 -132 65 -3 11 -15 18 -30 18 -14 0 -23 4
-20 9 3 5 -3 20 -14 34 -11 14 -20 30 -20 36 0 6 -7 11 -15 11 -9 0 -18 7 -21
15 -4 8 -13 15 -20 15 -19 0 -82 58 -89 81 -4 11 -12 19 -19 19 -7 0 -21 9
-32 21 -10 12 -45 34 -76 50 -32 16 -58 34 -58 39 0 5 -15 16 -34 24 -18 8
-36 19 -40 24 -3 6 -19 13 -35 17 -16 3 -35 13 -42 21 -24 29 -38 16 -42 -43
-2 -32 -3 12 -2 97 4 181 24 275 81 377 39 71 74 109 161 175 54 42 179 118
195 118 3 0 19 -10 35 -23z m1622 -40 l22 -24 -43 -39 c-46 -42 -191 -134
-253 -160 -44 -18 -61 -8 -51 30 9 38 250 216 292 216 6 0 20 -11 33 -23z
m4247 -47 c0 -11 -4 -20 -8 -20 -4 0 -8 9 -8 20 0 11 4 20 8 20 4 0 8 -9 8
-20z m56 -15 c4 -20 2 -23 -8 -14 -7 6 -10 17 -7 25 7 20 10 18 15 -11z m34 9
c-18 -17 -23 -18 -23 -1 0 7 9 14 19 14 16 2 16 0 4 -13z m-116 -5 c0 -5 -4
-8 -9 -4 -5 3 -12 -4 -16 -14 -4 -14 -11 -18 -23 -14 -16 6 -16 5 1 -11 9 -9
17 -25 17 -34 0 -10 -3 -13 -8 -7 -4 6 -15 11 -26 13 -14 3 -17 -1 -12 -13 4
-11 2 -14 -6 -9 -8 5 -9 2 -5 -10 6 -16 5 -16 -15 -1 -27 18 -42 20 -32 3 6
-10 4 -10 -6 -1 -12 11 -11 15 6 28 10 8 27 12 36 9 14 -4 16 -1 11 13 -6 17
-5 17 15 -1 12 -11 22 -14 22 -8 0 6 -4 14 -10 17 -16 10 -12 19 18 37 32 20
42 22 42 7z m1 -36 c13 -16 12 -17 -3 -4 -10 7 -18 15 -18 17 0 8 8 3 21 -13z
m32 -8 c-7 -21 -12 -19 -10 4 0 11 5 18 9 15 4 -3 5 -11 1 -19z m-2544 -9 c13
-13 21 -32 19 -42 -2 -10 -34 -35 -73 -57 -39 -22 -124 -73 -190 -115 -155
-97 -163 -102 -170 -102 -3 0 -13 16 -21 37 -22 52 -30 45 296 245 52 31 100
58 106 58 6 0 21 -11 33 -24z m2508 -18 c-6 -4 -15 -2 -19 5 -14 21 -9 28 12
15 13 -9 16 -14 7 -20z m-3799 10 c32 -32 4 -85 -65 -121 -27 -13 -106 -61
-178 -106 -143 -90 -185 -107 -240 -97 -71 14 -55 66 36 117 33 19 94 56 137
82 42 27 109 65 147 84 103 53 141 63 163 41z m3410 -68 c21 -13 30 -25 25
-33 -12 -19 -13 -40 -1 -54 7 -9 7 -13 -1 -13 -6 0 -11 3 -11 8 0 4 -4 13 -9
21 -7 12 -16 8 -48 -16 -35 -28 -124 -84 -225 -142 -23 -13 -71 -45 -107 -70
-36 -26 -127 -84 -201 -130 -74 -45 -161 -99 -192 -119 -166 -107 -249 -161
-475 -311 -225 -148 -450 -291 -459 -291 -2 0 -54 -32 -116 -71 -158 -100
-191 -115 -225 -103 -17 6 -29 18 -31 32 -3 17 9 29 60 61 119 75 449 286 646
415 108 71 244 159 302 196 58 37 213 136 345 220 132 84 330 209 440 277 110
69 204 129 210 134 14 14 37 11 73 -11z m217 0 c3 -5 1 -10 -4 -10 -6 0 -11 5
-11 10 0 6 2 10 4 10 3 0 8 -4 11 -10z m-2932 -42 c33 -45 33 -45 -208 -193
-60 -38 -181 -115 -269 -172 -183 -121 -196 -128 -229 -120 -30 8 -51 51 -37
76 11 21 90 75 275 188 72 44 193 119 270 167 77 48 149 85 159 84 10 -2 28
-15 39 -30z m2911 16 c5 -14 4 -15 -9 -4 -17 14 -19 20 -6 20 5 0 12 -7 15
-16z m-29 -4 c3 -5 1 -10 -4 -10 -6 0 -11 5 -11 10 0 6 2 10 4 10 3 0 8 -4 11
-10z m-85 -11 c0 -5 4 -7 10 -4 6 3 7 -1 4 -9 -8 -20 -24 -21 -24 -1 0 22 -15
18 -28 -7 -11 -23 -11 -23 -7 2 2 14 4 26 4 28 3 8 41 0 41 -9z m-3306 -65
c26 -25 19 -52 -16 -70 -18 -9 -108 -61 -199 -115 -92 -55 -174 -99 -183 -99
-37 0 -48 71 -13 95 141 99 331 205 369 205 15 0 34 -7 42 -16z m1334 7 c25
-8 -262 -236 -355 -282 -39 -19 -44 -19 -72 -4 -63 32 -41 59 159 182 162 101
214 121 268 104z m257 -41 c32 -12 41 -35 26 -63 -12 -22 -220 -166 -381 -264
l-85 -52 -37 39 c-24 25 -36 45 -32 55 4 8 74 61 158 117 83 55 167 113 186
128 77 59 99 65 165 40z m1705 6 c0 -2 -8 -10 -17 -17 -16 -13 -17 -12 -4 4
13 16 21 21 21 13z m-79 -33 c13 -16 12 -17 -3 -4 -10 7 -18 15 -18 17 0 8 8
3 21 -13z m-11 -18 c0 -2 -8 -1 -17 2 -16 6 -16 5 -4 -10 12 -15 12 -17 -2
-11 -9 3 -15 14 -14 24 1 15 5 16 19 9 10 -5 18 -12 18 -14z m-70 -25 c0 -5
-2 -10 -4 -10 -3 0 -8 5 -11 10 -3 6 -1 10 4 10 6 0 11 -4 11 -10z m-2536 -34
c9 -14 13 -32 10 -41 -7 -17 -153 -116 -273 -184 -36 -21 -133 -81 -215 -135
-81 -53 -152 -96 -156 -96 -5 0 -18 12 -29 27 -19 23 -20 29 -8 47 12 19 103
82 259 180 35 22 101 65 148 95 93 61 218 130 236 131 7 0 19 -11 28 -24z
m1551 -21 c14 -13 25 -28 25 -33 0 -15 -30 -36 -155 -110 -66 -38 -149 -88
-185 -110 -85 -53 -115 -60 -129 -34 -17 32 -13 59 11 82 18 17 282 177 358
217 35 18 47 16 75 -12z m800 -87 c-9 -6 -19 -7 -22 -4 -4 3 -1 6 6 6 7 0 9 4
6 10 -4 6 1 7 11 3 15 -6 15 -7 -1 -15z m-2176 -84 c12 -15 21 -32 21 -38 0
-6 -42 -38 -93 -70 -203 -131 -293 -186 -304 -186 -20 0 -43 30 -43 55 0 13
10 33 21 44 28 26 348 216 371 220 4 0 16 -11 27 -25z m-2109 -54 c18 -23 85
-83 149 -135 113 -91 310 -254 481 -399 47 -40 103 -85 125 -101 22 -17 103
-82 180 -146 77 -63 153 -124 168 -133 32 -22 34 -32 8 -39 -15 -3 -18 -1 -14
11 5 11 2 14 -10 9 -10 -4 -16 -2 -14 6 1 7 -4 11 -11 9 -8 -1 -11 2 -8 7 3 5
-49 53 -117 107 -67 54 -131 106 -141 116 -11 10 -23 18 -26 18 -4 0 -18 9
-31 20 -13 12 -40 34 -59 50 -19 16 -74 62 -121 102 -155 131 -183 153 -186
151 -1 -2 -13 7 -26 20 -38 37 -148 131 -212 182 -33 27 -89 75 -124 109 -35
34 -61 56 -57 50 3 -7 -1 -17 -9 -24 -8 -7 -15 -9 -15 -5 0 4 -7 2 -15 -5 -8
-7 -15 -9 -15 -4 0 5 -5 2 -10 -6 -5 -8 -10 -10 -10 -3 0 6 -9 9 -22 5 -35 -9
-12 16 40 43 26 13 52 24 59 25 6 0 26 -18 43 -40z m2317 -35 c11 -8 23 -25
26 -37 8 -30 -60 -93 -180 -167 -48 -30 -119 -75 -157 -100 -116 -77 -114 -76
-145 -54 -50 38 -36 86 38 127 25 14 120 75 211 135 91 61 170 111 175 111 6
0 20 -7 32 -15z m1678 -5 c3 -6 -1 -7 -9 -4 -18 7 -21 14 -7 14 6 0 13 -4 16
-10z m-1068 -62 c47 -44 40 -52 -167 -183 -69 -43 -164 -105 -212 -137 -49
-32 -94 -58 -101 -58 -20 0 -53 69 -41 87 5 8 86 62 179 121 94 58 201 125
240 149 38 23 71 43 74 43 3 0 15 -10 28 -22z m2614 -58 c5 0 9 -4 9 -10 0
-14 -37 -12 -43 3 -3 7 -6 5 -6 -5 -1 -13 7 -18 28 -18 23 0 29 -4 29 -23 0
-19 -5 -23 -23 -19 -12 2 -26 -1 -29 -7 -4 -6 -14 -11 -22 -11 -14 0 -14 2 0
15 8 8 25 19 38 24 21 9 21 10 3 10 -11 0 -29 -6 -39 -14 -11 -8 -25 -15 -30
-15 -6 0 -4 5 4 10 12 8 11 10 -7 10 -13 0 -23 5 -23 11 0 7 7 8 18 4 9 -3 19
-7 22 -8 3 -1 6 3 8 8 1 6 -2 10 -7 10 -5 0 -13 3 -17 8 -4 4 2 7 14 7 11 0
24 5 27 11 4 6 14 8 22 5 8 -3 19 -6 24 -6z m-1724 -16 c-3 -3 -12 -4 -19 -1
-8 3 -5 6 6 6 11 1 17 -2 13 -5z m1734 -104 c5 0 9 -7 9 -15 0 -11 -5 -13 -17
-6 -10 5 -29 14 -43 20 -23 10 -23 11 -3 7 13 -2 26 0 29 5 3 5 -1 9 -8 9 -9
0 -9 3 2 10 11 7 16 5 18 -10 2 -11 8 -20 13 -20z m-81 10 c0 -5 -8 -10 -17
-10 -15 0 -16 2 -3 10 19 12 20 12 20 0z m10 -30 c-18 -12 -30 -13 -30 -2 0 4
10 9 22 9 18 2 20 0 8 -7z m58 -20 c7 -11 10 -20 6 -20 -7 0 -34 27 -34 34 0
13 16 5 28 -14z m-3980 -25 c116 -54 146 -93 145 -191 -1 -67 -19 -113 -57
-138 -53 -34 -69 -17 -54 63 18 101 12 118 -69 184 -70 56 -89 89 -60 100 24
10 43 7 95 -18z m3892 21 c0 -2 -7 -7 -16 -10 -8 -3 -12 -2 -9 4 6 10 25 14
25 6z m73 -20 c25 -19 21 -26 -8 -13 -14 7 -25 15 -25 20 0 11 13 8 33 -7z
m-83 -26 c0 -5 -5 -10 -11 -10 -5 0 -7 5 -4 10 3 6 8 10 11 10 2 0 4 -4 4 -10z
m70 0 c0 -5 -2 -10 -4 -10 -3 0 -8 5 -11 10 -3 6 -1 10 4 10 6 0 11 -4 11 -10z
m-40 -52 c0 -6 -6 -5 -15 2 -8 7 -15 14 -15 16 0 2 7 1 15 -2 8 -4 15 -11 15
-16z m30 -9 c0 -6 -4 -7 -10 -4 -5 3 -10 11 -10 16 0 6 5 7 10 4 6 -3 10 -11
10 -16z m-65 -19 c3 -6 -1 -7 -9 -4 -18 7 -21 14 -7 14 6 0 13 -4 16 -10z
m-27 -25 c-3 -3 -9 2 -12 12 -6 14 -5 15 5 6 7 -7 10 -15 7 -18z m-3066 -395
c40 -11 78 -51 78 -81 0 -10 -23 -33 -56 -56 -30 -21 -87 -60 -126 -88 -145
-103 -292 -186 -354 -199 -75 -16 -149 20 -324 157 -81 64 -107 96 -97 120 3
9 38 38 78 64 65 43 78 48 140 51 108 6 131 -2 204 -70 l66 -61 97 65 c140 94
217 119 294 98z m182 -185 c-4 -8 -12 -15 -19 -15 -8 0 -20 -7 -29 -15 -8 -8
-17 -11 -20 -6 -3 5 9 18 26 29 40 25 49 26 42 7z m-1210 -27 c9 -12 16 -30
16 -40 0 -10 40 -46 98 -89 53 -40 123 -96 156 -125 32 -29 86 -68 121 -85 48
-25 63 -38 63 -55 0 -28 -26 -25 -42 5 -7 12 -15 19 -19 15 -3 -4 -9 1 -13 10
-3 9 -10 13 -16 10 -5 -3 -22 6 -38 21 -17 16 -33 24 -41 20 -8 -5 -10 -4 -5
3 4 7 -11 28 -35 49 -23 21 -48 44 -56 51 -7 7 -18 10 -24 6 -7 -4 -9 -3 -6 3
4 6 -4 14 -17 17 -14 3 -27 15 -31 26 -3 10 -12 17 -20 14 -12 -5 -29 11 -30
27 0 15 -66 59 -88 59 -16 0 -48 -18 -84 -49 -109 -92 -156 -156 -226 -313
-64 -143 -87 -292 -87 -560 0 -177 -1 -188 -19 -188 -31 0 -68 37 -88 88 -28
72 -25 300 6 452 20 100 67 236 117 335 49 99 145 194 278 273 79 47 108 52
130 20z m1100 -14 c3 -8 2 -12 -4 -9 -6 3 -10 10 -10 16 0 14 7 11 14 -7z m26
6 c0 -5 -2 -10 -4 -10 -3 0 -8 5 -11 10 -3 6 -1 10 4 10 6 0 11 -4 11 -10z
m138 -946 c39 -9 79 -22 88 -29 15 -11 9 -15 -49 -34 -79 -27 -129 -61 -225
-155 -80 -78 -81 -74 -16 56 52 103 101 178 118 178 7 0 45 -7 84 -16z"/>
<path d="M5740 7551 c0 -5 12 -17 28 -26 l27 -18 -24 27 c-26 28 -31 31 -31
17z"/>
<path d="M5800 7501 c0 -5 7 -12 16 -15 14 -5 15 -4 4 9 -14 17 -20 19 -20 6z"/>
<path d="M6120 7261 c0 -5 7 -12 16 -15 14 -5 15 -4 4 9 -14 17 -20 19 -20 6z"/>
<path d="M6160 7225 c0 -9 4 -14 9 -10 5 3 17 -2 26 -11 9 -9 18 -14 21 -11 3
3 -9 15 -25 27 -26 18 -31 19 -31 5z"/>
<path d="M6280 7140 c0 -5 5 -10 11 -10 5 0 7 5 4 10 -3 6 -8 10 -11 10 -2 0
-4 -4 -4 -10z"/>
<path d="M6400 7056 c0 -2 8 -10 18 -17 15 -13 16 -12 3 4 -13 16 -21 21 -21
13z"/>
<path d="M8560 5570 c0 -5 5 -10 11 -10 5 0 7 5 4 10 -3 6 -8 10 -11 10 -2 0
-4 -4 -4 -10z"/>
<path d="M8170 5350 c0 -6 7 -10 15 -10 8 0 15 2 15 4 0 2 -7 6 -15 10 -8 3
-15 1 -15 -4z"/>
<path d="M4725 3600 c3 -5 8 -10 11 -10 2 0 4 5 4 10 0 6 -5 10 -11 10 -5 0
-7 -4 -4 -10z"/>
<path d="M5076 3337 c3 -10 9 -15 12 -12 3 3 0 11 -7 18 -10 9 -11 8 -5 -6z"/>
<path d="M4575 8190 c-3 -6 1 -7 9 -4 18 7 21 14 7 14 -6 0 -13 -4 -16 -10z"/>
<path d="M4511 8161 c-21 -11 -30 -21 -22 -25 6 -4 11 -3 11 2 0 4 15 16 33
25 17 8 28 16 22 16 -5 0 -25 -8 -44 -18z"/>
<path d="M7070 7086 c0 -2 30 -26 68 -53 77 -56 92 -66 92 -60 0 5 -122 97
-147 111 -7 4 -13 5 -13 2z"/>
<path d="M7390 6856 c0 -2 8 -10 18 -17 15 -13 16 -12 3 4 -13 16 -21 21 -21
13z"/>
<path d="M7710 6617 c0 -2 15 -14 33 -27 20 -15 27 -17 18 -6 -13 16 -51 41
-51 33z"/>
<path d="M7780 6566 c0 -2 8 -10 18 -17 15 -13 16 -12 3 4 -13 16 -21 21 -21
13z"/>
<path d="M7921 6467 c19 -12 67 -46 105 -76 91 -72 94 -74 94 -69 0 3 -43 38
-95 79 -52 40 -95 77 -95 81 0 4 -10 8 -22 8 -20 -1 -18 -4 13 -23z"/>
<path d="M8170 6240 c0 -5 5 -10 10 -10 6 0 10 5 10 10 0 6 -4 10 -10 10 -5 0
-10 -4 -10 -10z"/>
<path d="M8192 6190 c13 -20 28 -27 28 -12 0 10 -22 32 -32 32 -5 0 -3 -9 4
-20z"/>
<path d="M8330 6140 c0 -5 5 -10 10 -10 6 0 10 5 10 10 0 6 -4 10 -10 10 -5 0
-10 -4 -10 -10z"/>
<path d="M8373 6103 c-7 -2 -13 -11 -13 -19 0 -7 6 -11 13 -8 8 3 14 11 14 19
0 8 -1 15 -1 14 -1 0 -7 -3 -13 -6z"/>
<path d="M8705 5890 c3 -5 8 -10 11 -10 2 0 4 5 4 10 0 6 -5 10 -11 10 -5 0
-7 -4 -4 -10z"/>
<path d="M8580 5880 c0 -5 5 -10 10 -10 6 0 10 5 10 10 0 6 -4 10 -10 10 -5 0
-10 -4 -10 -10z"/>
<path d="M8730 5875 c-7 -9 -11 -18 -8 -20 3 -3 11 1 18 10 7 9 11 18 8 20 -3
3 -11 -1 -18 -10z"/>
<path d="M8800 5779 c7 -11 14 -19 16 -16 7 7 -7 37 -17 37 -6 0 -5 -9 1 -21z"/>
<path d="M6605 3893 c-77 -52 -185 -123 -240 -158 -55 -35 -116 -77 -135 -94
-32 -28 -33 -30 -12 -31 35 0 81 22 157 77 211 151 267 189 338 224 42 22 77
43 77 47 0 12 -23 32 -34 31 -6 0 -74 -44 -151 -96z"/>
<path d="M7029 3734 c-178 -119 -355 -238 -394 -264 -38 -27 -139 -94 -224
-150 -239 -158 -331 -229 -331 -257 0 -13 3 -23 6 -23 20 0 626 397 1134 742
108 74 195 140 195 148 0 9 -11 16 -31 18 -26 3 -83 -31 -355 -214z"/>
</g>
</svg>
