<?xml version="1.0" standalone="no"?>
<!DOCTYPE svg PUBLIC "-//W3C//DTD SVG 20010904//EN"
 "http://www.w3.org/TR/2001/REC-SVG-20010904/DTD/svg10.dtd">
<svg version="1.0" xmlns="http://www.w3.org/2000/svg"
 width="304.000000pt" height="304.000000pt" viewBox="0 0 304.000000 304.000000"
 preserveAspectRatio="xMidYMid meet">

<g transform="translate(0.000000,304.000000) scale(0.100000,-0.100000)"
fill="#000000" stroke="none">
<path d="M1013 2915 c-59 -26 -65 -45 -61 -225 l3 -162 28 -23 c53 -47 145
-45 199 4 27 24 32 36 36 90 l4 61 -60 0 -61 0 -3 -52 c-2 -30 -8 -53 -15 -56
-10 -3 -13 31 -13 148 0 117 3 151 13 148 7 -3 13 -27 15 -61 l3 -57 59 0 60
0 0 50 c0 28 -6 65 -14 84 -24 58 -119 84 -193 51z"/>
<path d="M1313 2915 c-59 -26 -65 -45 -61 -225 l3 -162 28 -23 c54 -47 149
-44 199 5 l28 28 0 159 c0 177 -5 194 -66 219 -42 18 -90 17 -131 -1z m77
-215 c0 -93 -4 -150 -10 -150 -6 0 -10 57 -10 150 0 93 4 150 10 150 6 0 10
-57 10 -150z"/>
<path d="M1550 2700 l0 -220 99 0 c120 0 145 8 160 51 14 42 14 287 0 329 -16
45 -58 60 -169 60 l-90 0 0 -220z m148 19 c3 -119 -2 -159 -18 -159 -6 0 -10
55 -10 141 0 108 3 140 13 137 8 -3 13 -39 15 -119z"/>
<path d="M1850 2700 l0 -220 100 0 100 0 0 45 0 45 -40 0 -40 0 0 45 c0 45 0
45 35 45 35 0 35 0 35 45 0 45 0 45 -35 45 -34 0 -35 1 -35 40 0 39 1 40 35
40 35 0 35 0 35 45 l0 45 -95 0 -95 0 0 -220z"/>
<path d="M110 1485 l0 -1305 365 0 365 0 0 75 0 75 -285 0 -285 0 0 1155 0
1155 285 0 285 0 0 75 0 75 -365 0 -365 0 0 -1305z"/>
<path d="M2180 2715 l0 -75 275 0 275 0 0 -1155 0 -1155 -275 0 -275 0 0 -75
0 -75 365 0 365 0 0 1305 0 1305 -365 0 -365 0 0 -75z"/>
<path d="M410 1485 l0 -1015 215 0 215 0 0 55 0 55 -70 0 -70 0 0 905 0 905
70 0 70 0 0 55 0 55 -215 0 -215 0 0 -1015z"/>
<path d="M2180 2445 l0 -55 70 0 70 0 0 -905 0 -905 -70 0 -70 0 0 -55 0 -55
205 0 205 0 0 1015 0 1015 -205 0 -205 0 0 -55z"/>
<path d="M1200 1533 l0 -918 460 460 460 460 -457 457 c-252 252 -459 458
-460 458 -2 0 -3 -413 -3 -917z m445 -353 c-187 -187 -343 -340 -347 -340 -5
0 -8 309 -8 687 l0 688 347 -347 348 -348 -340 -340z"/>
<path d="M1450 1520 l0 -305 152 153 153 152 -153 152 -152 153 0 -305z"/>
<path d="M1313 545 c-59 -26 -65 -45 -61 -225 l3 -162 28 -23 c54 -47 149 -44
199 5 l28 28 0 159 c0 177 -5 194 -66 219 -42 18 -90 17 -131 -1z m77 -215 c0
-93 -4 -150 -10 -150 -6 0 -10 57 -10 150 0 93 4 150 10 150 6 0 10 -57 10
-150z"/>
<path d="M1613 545 c-59 -26 -65 -45 -61 -225 l3 -162 28 -23 c54 -47 149 -44
199 5 l28 28 0 159 c0 177 -5 194 -66 219 -42 18 -90 17 -131 -1z m77 -215 c0
-93 -4 -150 -10 -150 -6 0 -10 57 -10 150 0 93 4 150 10 150 6 0 10 -57 10
-150z"/>
<path d="M950 330 l0 -220 109 0 c147 0 156 7 156 120 0 72 -3 84 -22 99 -21
18 -21 18 -2 34 13 12 19 30 19 61 0 101 -33 126 -170 126 l-90 0 0 -220z
m145 95 c0 -22 -5 -40 -12 -42 -9 -3 -13 9 -13 42 0 33 4 45 13 43 7 -3 12
-21 12 -43z m3 -177 c-4 -74 -28 -77 -28 -4 0 44 3 56 16 56 12 0 14 -10 12
-52z"/>
<path d="M1850 330 l0 -220 60 0 60 0 1 73 1 72 17 -70 16 -70 63 -3 c34 -2
62 0 62 3 0 4 -16 58 -34 120 l-35 114 30 87 c16 48 29 94 29 101 0 9 -16 13
-54 13 l-53 0 -21 -67 -21 -68 0 68 -1 67 -60 0 -60 0 0 -220z"/>
</g>
</svg>
