<?xml version="1.0" standalone="no"?>
<!DOCTYPE svg PUBLIC "-//W3C//DTD SVG 20010904//EN"
 "http://www.w3.org/TR/2001/REC-SVG-20010904/DTD/svg10.dtd">
<svg version="1.0" xmlns="http://www.w3.org/2000/svg"
 width="1612.000000pt" height="1612.000000pt" viewBox="0 0 1612.000000 1612.000000"
 preserveAspectRatio="xMidYMid meet">

<g transform="translate(0.000000,1612.000000) scale(0.100000,-0.100000)"
fill="#000000" stroke="none">
<path d="M1396 15969 c-176 -10 -330 -34 -424 -65 -175 -58 -360 -175 -501
-315 -182 -183 -301 -402 -368 -679 -17 -72 -18 -346 -20 -6324 -2 -4102 0
-6252 7 -6256 6 -4 6 -35 0 -90 -20 -172 -8 -373 32 -560 97 -452 379 -860
768 -1113 276 -178 507 -246 930 -272 58 -4 159 -15 225 -25 162 -26 315 -38
595 -50 317 -13 10493 -13 10810 0 282 12 435 24 595 50 66 10 183 24 260 30
321 25 482 64 690 167 353 177 640 468 810 825 128 269 184 545 172 848 -4 96
0 211 10 340 15 176 17 716 20 5420 3 3893 1 5290 -8 5480 -6 140 -15 525 -19
855 -8 653 -8 648 -70 837 -125 375 -424 684 -799 825 -92 34 -261 60 -472 72
-220 13 -13024 13 -13243 0z m14084 -7524 l0 -4505 -7435 0 -7435 0 0 4505 0
4505 7435 0 7435 0 0 -4505z"/>
<path d="M5135 12260 c-199 -55 -301 -89 -318 -108 -9 -10 -17 -35 -17 -55 0
-33 3 -37 38 -46 20 -6 43 -11 50 -11 19 0 30 -37 47 -162 28 -205 34 -406 25
-737 -14 -472 -20 -511 -84 -570 -37 -35 -34 -69 7 -85 17 -7 103 -22 189 -31
184 -22 219 -18 417 47 161 52 325 135 388 197 83 81 168 251 197 393 43 211
46 555 6 683 -26 83 -81 181 -141 248 -122 139 -381 252 -599 262 -83 4 -109
1 -205 -25z m327 -149 c30 -10 68 -26 84 -34 65 -34 158 -113 205 -176 103
-135 139 -256 139 -463 0 -224 -31 -392 -98 -533 -91 -189 -232 -276 -474
-292 -114 -7 -141 4 -157 64 -7 25 -11 276 -11 715 l0 677 33 17 c89 47 190
56 279 25z"/>
<path d="M7317 12275 c-91 -23 -164 -63 -232 -127 -177 -165 -269 -439 -282
-843 -9 -281 13 -428 87 -584 69 -144 193 -240 375 -293 68 -19 104 -22 240
-23 142 0 164 2 193 20 39 24 48 49 29 79 -14 21 -26 24 -124 30 -259 17 -400
98 -488 281 -50 104 -85 270 -85 401 l0 41 53 7 c28 3 108 6 177 6 205 1 250
9 305 54 26 21 52 50 58 63 22 48 -1 53 -263 53 -230 0 -238 -1 -284 -24 l-48
-24 6 76 c25 289 100 504 208 596 60 52 113 66 244 66 144 0 173 6 185 38 14
36 1 80 -28 99 -36 24 -244 28 -326 8z"/>
<path d="M8460 12195 c-102 -52 -200 -107 -219 -123 -47 -39 -39 -68 31 -108
29 -16 59 -42 66 -57 40 -83 41 -664 1 -1057 -17 -174 -28 -222 -58 -260 -40
-52 -43 -58 -32 -79 13 -24 87 -41 179 -41 81 0 209 34 360 94 136 55 179 77
267 136 205 139 273 301 193 460 -58 117 -226 272 -366 338 l-61 29 91 54 c56
33 122 83 169 129 92 90 109 132 109 275 0 80 -3 98 -27 146 -31 59 -66 87
-149 118 -73 28 -162 41 -274 41 l-95 -1 -185 -94z m374 -59 c98 -48 156 -143
137 -226 -22 -99 -129 -241 -245 -327 -63 -47 -105 -55 -144 -27 -22 15 -22
18 -22 280 0 162 4 273 10 284 31 58 162 66 264 16z m-96 -782 c127 -70 242
-174 300 -273 71 -121 1 -253 -178 -335 -101 -46 -277 -78 -310 -57 -13 9 -15
54 -15 303 0 241 3 298 15 323 15 29 81 75 109 75 8 0 44 -16 79 -36z"/>
<path d="M13776 12240 c-29 -27 -61 -65 -71 -84 -18 -33 -18 -35 2 -82 35 -83
42 -143 54 -471 11 -314 7 -618 -12 -925 -10 -174 -5 -199 42 -218 36 -15 82
-5 119 27 l30 25 0 202 c0 112 3 264 7 339 l6 137 52 0 c40 0 61 -6 96 -29 51
-34 296 -260 551 -508 98 -95 189 -175 202 -179 32 -8 137 27 207 69 40 23 55
39 57 57 4 38 -9 50 -74 66 -114 30 -262 132 -464 319 -224 209 -318 285 -380
306 l-30 11 60 45 c66 49 176 152 456 424 181 175 206 193 317 234 27 9 51 24
54 32 7 17 -61 91 -125 135 -30 21 -50 28 -67 24 -12 -3 -203 -190 -426 -417
-222 -226 -417 -420 -432 -431 -26 -19 -30 -19 -45 -5 -14 15 -14 42 2 324 15
256 21 315 37 352 26 59 24 73 -17 158 -30 59 -44 78 -75 94 -56 28 -75 24
-133 -31z"/>
<path d="M1999 12240 c-318 -36 -582 -192 -722 -426 -99 -167 -148 -363 -148
-601 0 -206 31 -329 116 -458 83 -125 195 -211 340 -261 71 -25 94 -28 205
-28 193 1 354 38 466 109 59 38 178 154 199 195 29 56 -23 108 -80 82 -13 -6
-58 -36 -100 -67 -171 -127 -285 -169 -434 -163 -132 5 -187 32 -303 148 -72
73 -94 102 -131 181 -81 166 -97 289 -63 471 67 359 260 596 531 653 88 18
156 19 199 1 18 -7 58 -39 88 -71 43 -45 60 -56 76 -51 36 12 101 65 128 106
24 36 25 43 14 70 -37 88 -187 132 -381 110z"/>
<path d="M3511 12158 c-237 -34 -444 -196 -552 -433 -84 -185 -110 -458 -63
-654 8 -36 38 -113 66 -170 119 -243 327 -370 588 -359 373 17 659 318 689
726 35 475 -149 818 -474 887 -77 16 -157 17 -254 3z m242 -201 c82 -37 129
-78 177 -150 58 -88 97 -217 109 -363 23 -266 -29 -465 -153 -590 -107 -106
-254 -146 -407 -110 -161 37 -298 194 -361 412 -32 112 -32 304 1 419 59 208
169 338 336 398 77 27 221 20 298 -16z"/>
<path d="M10461 12159 c-287 -44 -518 -263 -600 -569 -91 -340 -24 -668 179
-871 120 -121 261 -179 431 -179 185 0 350 70 490 210 75 75 94 100 137 191
80 164 87 200 87 439 -1 238 -14 310 -90 465 -100 206 -256 310 -480 320 -49
2 -119 -1 -154 -6z m251 -206 c186 -87 278 -291 278 -616 0 -167 -16 -252 -65
-355 -91 -193 -288 -287 -496 -238 -125 29 -233 125 -304 270 -56 113 -75 184
-82 307 -13 217 61 427 194 551 95 88 180 119 313 115 82 -2 104 -7 162 -34z"/>
<path d="M12375 12160 c-305 -48 -524 -259 -613 -589 -23 -85 -26 -116 -26
-271 -1 -204 9 -252 82 -400 38 -77 61 -110 127 -176 128 -129 259 -184 431
-184 327 1 601 224 696 567 19 67 22 105 22 268 0 163 -3 202 -22 277 -82 329
-265 500 -547 513 -49 2 -117 0 -150 -5z m248 -208 c120 -60 200 -171 249
-347 19 -69 22 -106 22 -270 1 -183 0 -193 -27 -270 -46 -130 -99 -205 -189
-265 -90 -60 -228 -84 -336 -60 -161 38 -297 187 -364 400 -20 65 -23 96 -23
225 0 129 3 160 23 225 63 201 175 330 332 382 42 14 77 17 152 15 85 -3 106
-8 161 -35z"/>
<path d="M3688 10106 c-25 -7 -58 -20 -72 -29 -16 -11 -46 -17 -81 -17 -153 0
-425 -48 -601 -105 -131 -43 -309 -127 -407 -192 -96 -63 -237 -201 -293 -284
-103 -156 -173 -363 -219 -650 l-5 -37 -133 -47 c-289 -104 -416 -172 -528
-284 -59 -59 -81 -89 -97 -134 -37 -98 -24 -172 41 -239 96 -99 253 -111 465
-36 46 16 87 27 90 24 3 -3 -25 -65 -61 -138 -73 -146 -110 -261 -128 -395
-15 -114 -3 -275 27 -375 3 -10 0 -18 -7 -18 -6 0 -48 -18 -93 -41 -188 -95
-354 -230 -375 -305 -13 -48 7 -155 101 -538 62 -253 69 -293 59 -321 -14 -39
-14 -95 -1 -168 11 -56 11 -58 -29 -124 -79 -134 -128 -289 -117 -369 6 -47
49 -138 90 -193 23 -31 26 -45 26 -113 l0 -78 2221 0 2220 0 -7 58 c-4 31 -13
84 -21 117 -7 33 -18 103 -23 156 -4 52 -12 112 -15 132 -5 24 -3 37 3 37 24
0 132 114 158 166 48 99 33 243 -41 389 -39 76 -40 82 -29 120 7 22 13 72 13
110 1 86 -23 143 -98 232 l-52 62 22 90 c12 49 19 100 16 113 -4 14 -44 66
-91 116 -46 50 -105 116 -131 147 -45 52 -47 56 -32 78 27 41 75 190 87 272
12 80 8 215 -9 326 -5 30 -8 55 -6 57 1 2 17 -25 36 -60 107 -204 139 -306
141 -448 l2 -95 13 45 c48 158 19 360 -85 597 -18 39 -32 74 -32 78 0 4 19 -4
43 -18 49 -29 156 -67 188 -67 13 0 0 11 -37 31 -123 64 -219 156 -329 314
-48 69 -53 80 -43 103 16 42 22 364 9 493 -32 304 -124 586 -256 784 -59 90
-195 225 -297 298 -199 141 -511 263 -762 296 -50 7 -89 19 -108 32 -73 52
-218 73 -320 45z m92 -35 c-18 -10 -127 -25 -118 -16 6 6 84 22 118 24 13 0
13 -1 0 -8z m-80 -68 c-279 -9 -509 -43 -688 -102 -393 -129 -652 -338 -770
-624 -40 -94 -99 -297 -108 -369 -8 -65 -17 -84 -44 -91 -24 -6 -25 0 -6 110
35 197 115 409 205 541 170 250 537 445 964 511 171 27 183 28 372 27 88 0
122 -1 75 -3z m168 -10 c-16 -2 -40 -2 -55 0 -16 2 -3 4 27 4 30 0 43 -2 28
-4z m-1040 -1060 c-10 -2 -28 -2 -40 0 -13 2 -5 4 17 4 22 1 32 -1 23 -4z
m-182 -29 c-119 -23 -150 -33 -105 -35 13 0 -75 -26 -196 -58 -323 -84 -524
-150 -682 -221 -208 -94 -361 -262 -351 -385 4 -50 -6 -50 -22 0 -9 28 -8 45
4 88 52 179 250 293 868 501 206 70 479 134 568 134 19 0 -18 -11 -84 -24z
m-32 -588 c1 -13 -10 -23 -38 -32 -22 -8 -55 -26 -74 -40 -34 -27 -34 -27 -27
-4 7 23 59 133 84 179 13 23 14 23 33 -30 11 -30 21 -62 22 -73z m860 -107
c-21 -23 -12 -25 20 -4 21 14 28 14 74 -4 28 -11 81 -26 119 -34 l68 -14 -34
-18 c-24 -12 -48 -16 -78 -12 -23 2 -43 3 -43 0 0 -2 16 -11 36 -19 l36 -15
-24 -18 c-40 -32 -81 -35 -105 -9 -22 24 -133 194 -133 203 0 3 18 -4 41 -15
39 -21 40 -22 23 -41z m-628 -41 c26 -40 60 -90 76 -110 44 -57 17 -46 -37 14
-43 48 -105 142 -105 161 0 23 25 -2 66 -65z m-131 -11 c28 -40 51 -75 53 -78
2 -4 -28 -5 -65 -3 -63 4 -66 3 -36 -8 51 -21 48 -25 -21 -33 -42 -4 -72 -2
-86 5 -27 14 -37 6 -20 -15 17 -20 11 -25 -65 -50 -63 -22 -74 -35 -28 -35 33
0 29 -19 -15 -65 l-37 -40 -3 32 c-4 37 20 172 43 250 15 50 18 53 73 73 50
19 117 36 147 38 6 1 33 -31 60 -71z m1480 52 c11 -11 -14 -11 -67 -3 -21 4
-35 10 -32 15 6 11 85 1 99 -12z m105 -54 c41 -42 37 -43 -25 -9 -34 19 -43
29 -33 35 19 13 21 12 58 -26z m-716 -208 c-1 -7 -5 -25 -9 -42 l-6 -30 20 23
c25 29 34 24 51 -27 13 -42 30 -55 30 -24 0 29 39 99 76 137 36 37 95 72 146
87 34 9 34 8 3 -40 -13 -22 -27 -50 -30 -64 -6 -22 -3 -25 35 -30 66 -9 103
-60 68 -95 -27 -27 -98 -2 -98 35 0 7 -4 13 -10 13 -15 0 -12 -100 6 -159 19
-65 73 -127 138 -157 l48 -22 -43 -20 c-33 -15 -39 -21 -21 -21 12 -1 22 -6
22 -11 0 -7 7 -7 21 1 12 6 44 9 70 7 27 -3 50 -1 51 3 2 4 28 19 58 33 55 25
55 25 20 26 l-35 0 31 25 c47 36 77 115 77 200 -1 68 14 68 17 0 l1 -30 15 28
c8 15 17 27 21 27 15 0 -22 -336 -40 -358 -18 -23 -119 -69 -192 -87 -49 -13
-110 -19 -200 -19 -160 -1 -214 14 -280 81 -46 46 -117 177 -130 241 l-7 32
49 0 48 1 -30 14 c-29 13 -29 13 20 8 28 -2 61 -1 74 4 24 10 24 10 -12 32
-56 35 -192 195 -260 307 -3 6 37 -18 91 -53 53 -36 96 -70 96 -76z m26 62 c0
-14 -16 -11 -29 5 -10 12 -8 13 8 9 12 -3 21 -9 21 -14z m1794 -71 c22 -50 62
-235 53 -244 -2 -2 -10 22 -17 53 -7 32 -25 100 -40 151 -16 50 -26 92 -23 92
2 0 14 -24 27 -52z m-3250 -432 c21 -88 69 -208 107 -267 40 -62 37 -71 -6
-18 -45 55 -109 185 -131 264 -23 83 -30 320 -13 416 l14 74 6 -200 c4 -130
12 -224 23 -269z m-339 333 c-54 -158 -87 -284 -100 -384 l-13 -90 -1 82 c-1
100 17 200 59 318 34 95 78 190 86 183 2 -3 -12 -51 -31 -109z m925 52 c-16
-24 -50 -102 -50 -117 0 -2 14 -4 30 -4 44 0 89 -26 96 -55 8 -32 -11 -55 -45
-55 -31 0 -51 16 -51 42 0 10 -7 18 -16 18 -14 0 -16 -10 -12 -67 3 -38 15
-91 28 -120 24 -57 84 -119 125 -129 33 -8 32 -17 -7 -33 -23 -9 -28 -14 -18
-18 8 -3 18 -10 21 -16 4 -5 14 -5 27 2 11 6 41 11 65 11 30 0 47 5 50 14 3 8
16 16 29 19 l23 4 -22 8 c-21 7 -20 8 14 38 51 45 72 98 74 182 l1 70 15 -35
c22 -50 12 -199 -17 -269 -43 -98 -136 -153 -297 -172 -94 -12 -168 -1 -221
31 -39 24 -71 90 -102 207 -31 119 -28 127 26 65 26 -29 48 -51 50 -50 2 2 -3
26 -11 53 -8 26 -15 85 -15 130 0 69 4 90 28 135 30 60 79 104 138 125 60 22
68 19 44 -14z m2236 0 c62 -38 111 -162 101 -258 -7 -63 -43 -147 -88 -203
-37 -46 -121 -106 -163 -116 -26 -6 -28 -5 -22 12 4 10 13 39 19 63 7 27 20
47 33 53 19 9 54 56 54 74 0 4 -14 -5 -31 -22 l-32 -29 7 40 c3 22 9 75 13
118 6 73 14 93 27 65 5 -10 8 -10 12 1 16 34 55 63 80 58 16 -3 23 0 21 7 -7
20 -52 37 -89 32 -36 -4 -38 -2 -38 22 0 15 -3 44 -6 65 l-7 37 39 0 c22 0 53
-9 70 -19z m-2930 -224 c0 -144 -2 -193 -9 -172 -18 55 -13 375 6 375 1 0 2
-91 3 -203z m1066 88 c13 -60 4 -63 -14 -5 -11 34 -13 50 -5 47 6 -2 15 -21
19 -42z m-1191 -121 c-30 -157 -43 -307 -39 -472 2 -83 1 -152 -2 -152 -3 1
-20 9 -39 18 -46 22 -55 59 -48 192 6 113 25 216 58 320 23 70 80 202 85 197
2 -2 -5 -48 -15 -103z m1408 85 c58 -9 85 -17 88 -28 79 -231 172 -347 316
-393 119 -39 376 -22 503 32 l45 20 -7 -23 c-30 -97 -152 -207 -232 -207 -13
0 -20 -4 -17 -10 9 -14 118 -12 190 4 65 14 106 32 172 77 49 34 49 39 1 -111
-49 -150 -79 -202 -145 -250 -126 -91 -427 -213 -625 -254 -158 -33 -357 -12
-575 59 -305 100 -464 256 -481 468 l-5 69 34 -18 c48 -25 166 -29 272 -11
153 27 246 86 296 190 39 80 53 167 49 301 -3 103 -2 107 17 102 11 -2 58 -10
104 -17z m905 -15 c14 -5 24 -54 11 -54 -19 0 -55 27 -55 42 0 18 16 23 44 12z
m-215 -28 c9 -11 6 -17 -15 -31 -31 -20 -50 -8 -39 24 7 24 37 28 54 7z
m-2051 -211 c-17 -210 -20 -399 -5 -479 10 -58 11 -74 2 -62 -52 70 -54 409
-4 600 6 21 11 36 13 35 1 -2 -1 -44 -6 -94z m1082 54 c0 -24 -26 -25 -39 0
-13 23 -6 30 20 24 10 -3 19 -14 19 -24z m1365 -6 c-8 -35 -67 -165 -72 -159
-2 2 12 40 32 84 19 44 35 85 35 91 0 6 3 11 6 11 3 0 3 -12 -1 -27z m-1577
-4 c4 -20 -37 -44 -51 -30 -7 7 -5 17 8 31 20 22 38 22 43 -1z m-469 -694 c19
-27 57 -79 84 -114 l50 -64 -42 33 c-92 74 -176 201 -225 338 -40 113 -31 107
37 -23 34 -66 78 -142 96 -170z m-646 248 c15 -7 27 -17 27 -21 0 -5 -24 -14
-52 -21 -62 -16 -201 -71 -194 -78 2 -2 42 7 88 22 45 15 112 29 148 32 57 5
69 2 93 -17 36 -29 34 -40 -7 -40 -33 0 -171 -38 -164 -45 2 -2 37 1 78 6 44
6 96 7 125 2 42 -7 54 -15 82 -51 40 -53 67 -141 60 -195 -5 -37 -50 -106 -74
-114 -6 -2 -14 13 -18 34 -5 29 -3 40 11 50 17 12 17 13 -3 13 -26 0 -33 18
-33 86 0 63 -14 64 -30 4 -8 -30 -7 -53 4 -97 35 -136 29 -314 -14 -411 -11
-25 -37 -65 -56 -89 -40 -49 -40 -64 0 -37 32 20 37 16 39 -28 2 -32 -1 -35
-73 -70 -85 -42 -184 -68 -262 -68 l-54 0 -77 308 c-42 169 -86 358 -98 421
l-21 115 20 41 c33 69 207 201 332 252 55 23 72 22 123 -4z m3622 -50 c33 -24
289 -302 304 -331 10 -18 7 -41 -13 -130 -25 -106 -54 -244 -122 -582 -19 -96
-39 -185 -44 -197 -6 -16 -23 -24 -65 -33 -98 -20 -251 17 -327 81 -37 30 -45
50 -32 84 6 14 8 14 25 -1 36 -33 19 3 -39 80 -35 46 -66 99 -76 133 -19 59
-35 198 -36 303 0 55 -4 70 -26 95 -18 21 -23 24 -18 10 12 -34 17 -155 6
-155 -25 0 -88 108 -98 168 -5 34 -2 43 22 70 29 31 111 61 174 63 23 0 23 1
5 9 -11 5 -39 9 -62 9 -50 1 -54 12 -15 39 46 33 109 45 200 38 46 -3 81 -2
78 2 -6 11 -103 31 -161 35 l-40 2 34 33 c58 56 85 65 144 51 29 -6 90 -27
136 -45 47 -19 86 -32 88 -30 13 12 -190 126 -225 126 -20 0 -6 16 51 61 56
44 84 47 132 12z m-2515 -420 c0 -3 -34 -39 -75 -80 -69 -67 -75 -76 -75 -114
0 -35 -2 -40 -14 -30 -12 10 -15 8 -20 -11 -2 -13 -4 6 -2 42 2 83 22 112 107
163 63 37 79 43 79 30z m1189 -210 c6 -23 23 -56 37 -72 l25 -31 -46 -27
c-113 -67 -287 -183 -374 -248 -183 -138 -177 -134 -213 -126 -19 5 -43 13
-55 19 -42 23 -170 190 -155 203 13 13 134 49 144 43 5 -3 6 -15 3 -27 -6 -22
-6 -22 10 -2 18 23 44 106 53 173 l7 46 88 27 c100 31 256 105 372 177 l80 50
7 -82 c3 -45 11 -100 17 -123z m-1395 -78 c4 -22 10 -49 13 -60 l5 -20 -15 20
c-16 20 -16 19 -46 -15 -17 -19 -30 -40 -31 -45 0 -14 46 -83 84 -124 l31 -34
-45 30 c-86 59 -120 109 -120 180 0 30 9 45 51 87 56 56 61 54 73 -19z m-632
-85 c51 -71 185 -207 174 -175 -5 11 -11 45 -16 75 -4 30 -13 68 -19 83 -6 16
-11 45 -11 65 l0 37 27 -35 c59 -78 140 -147 218 -186 70 -36 80 -44 77 -65
-6 -39 -53 -118 -90 -150 l-34 -30 38 7 c54 9 102 30 143 61 19 15 32 20 28
12 -3 -8 -37 -90 -74 -184 l-69 -169 -54 -33 c-30 -18 -60 -32 -66 -33 -7 0
-15 17 -19 38 -9 49 -74 186 -114 240 -35 47 -84 82 -116 82 -18 0 -23 12 -39
89 -19 96 -35 127 -72 141 -34 13 -40 50 -15 98 12 23 21 46 21 51 0 22 21 64
29 55 4 -5 28 -38 53 -74z m662 -295 c-9 -22 -10 -35 -4 -35 6 0 -2 -19 -18
-42 -35 -52 -90 -161 -122 -243 -25 -65 -40 -88 -41 -64 0 7 -9 -4 -20 -26
l-19 -40 5 47 c5 52 79 243 121 315 29 50 91 123 105 123 4 0 1 -16 -7 -35z
m-1208 -250 c-8 -21 -28 54 -32 120 l-4 70 20 -90 c11 -49 18 -94 16 -100z
m-80 -111 c-52 -102 -71 -169 -64 -222 3 -21 27 -86 53 -145 25 -60 45 -111
43 -113 -17 -16 -115 143 -123 201 -10 67 44 243 106 344 39 64 30 22 -15 -65z
m1033 -83 c-6 -17 -26 -41 -44 -56 -33 -25 -34 -25 -45 -6 -17 32 -12 39 38
65 60 32 63 32 51 -3z m1188 -313 c-3 -8 -6 -5 -6 6 -1 11 2 17 5 13 3 -3 4
-12 1 -19z"/>
<path d="M2478 8863 c6 -2 18 -2 25 0 6 3 1 5 -13 5 -14 0 -19 -2 -12 -5z"/>
<path d="M3250 7354 c0 -11 7 -29 15 -40 13 -17 14 -16 3 16 -14 43 -18 49
-18 24z"/>
<path d="M3662 7167 c-23 -28 -154 -79 -240 -94 -71 -12 -99 -13 -152 -3 -106
19 -105 19 -104 -17 3 -65 97 -163 184 -191 l35 -11 -25 17 c-71 48 -100 113
-65 142 8 7 46 16 85 20 39 4 110 18 159 31 100 26 121 20 121 -31 0 -31 -47
-101 -85 -126 -14 -9 -23 -19 -20 -22 8 -8 83 48 109 83 39 50 58 107 54 161
-2 41 -6 49 -24 52 -11 2 -26 -3 -32 -11z"/>
<path d="M7975 8347 c-25 -21 -26 -24 -15 -72 7 -30 10 -127 9 -245 -2 -108 0
-200 3 -205 4 -6 68 -10 150 -9 l143 1 9 26 c13 35 5 40 -41 28 -21 -6 -77
-11 -125 -11 l-88 0 5 58 c2 31 7 146 10 255 5 190 4 197 -14 197 -11 0 -32
-10 -46 -23z"/>
<path d="M8445 8347 c-25 -21 -26 -24 -15 -72 7 -30 10 -127 9 -245 -2 -108 0
-200 3 -205 4 -6 68 -10 150 -9 l143 1 9 26 c13 35 5 40 -41 28 -21 -6 -77
-11 -125 -11 l-88 0 5 58 c2 31 7 146 10 255 5 190 4 197 -14 197 -11 0 -32
-10 -46 -23z"/>
<path d="M7620 8332 c-80 -43 -127 -174 -117 -328 8 -138 62 -204 178 -217 49
-6 99 5 99 21 0 5 -28 14 -62 20 -51 9 -69 18 -95 46 -32 34 -53 89 -53 137 0
29 26 39 105 39 29 0 47 6 60 20 17 18 16 19 -10 26 -15 4 -56 4 -92 1 l-66
-6 7 52 c15 113 64 167 151 167 29 0 36 3 33 18 -5 26 -92 28 -138 4z"/>
<path d="M6865 8310 c-16 -18 -16 -20 4 -46 17 -22 21 -40 21 -104 l0 -78 -36
-21 c-34 -20 -36 -24 -31 -58 4 -20 20 -59 37 -86 16 -26 30 -62 30 -79 0 -27
3 -30 25 -25 23 4 36 -10 124 -127 154 -204 246 -388 283 -564 31 -148 29
-341 -6 -498 -93 -425 -291 -902 -463 -1115 -133 -166 -140 -197 -60 -274 67
-65 130 -95 201 -95 75 0 151 17 170 39 9 10 32 80 52 157 41 162 67 250 176
589 44 138 124 398 179 579 93 312 105 345 112 335 36 -48 703 -739 773 -801
365 -321 625 -432 967 -415 312 15 632 136 995 374 148 97 317 234 530 427
102 93 174 152 176 144 2 -7 7 -31 10 -53 3 -22 40 -274 81 -561 41 -287 82
-545 91 -574 20 -66 61 -110 104 -110 47 0 179 55 235 98 46 35 50 42 49 78 0
28 -22 85 -68 185 -85 178 -128 289 -163 416 -27 97 -27 102 -27 393 0 349 15
512 80 899 24 145 44 277 44 293 0 53 -85 111 -184 124 -67 10 -89 -14 -127
-140 -17 -56 -46 -153 -65 -216 -161 -527 -667 -1103 -1220 -1387 -276 -142
-500 -192 -664 -148 -186 49 -457 245 -779 560 -302 296 -531 570 -794 949
-171 247 -331 466 -419 572 -32 39 -58 77 -58 85 0 8 10 19 22 24 31 13 36 45
8 45 -11 0 -23 6 -26 13 -5 14 10 138 21 175 6 19 4 22 -19 22 -59 0 -66 -12
-66 -113 l0 -93 -121 -1 -122 0 6 104 6 104 -25 9 c-36 14 -49 12 -69 -10z"/>
<path d="M9010 8299 c-89 -36 -145 -130 -145 -244 0 -168 131 -269 273 -210
85 36 132 118 132 231 0 112 -34 184 -102 220 -31 16 -121 18 -158 3z m129
-54 c45 -23 71 -88 71 -176 0 -121 -46 -182 -135 -182 -56 0 -90 23 -123 84
-20 37 -23 55 -20 115 4 77 28 127 77 158 33 20 93 20 130 1z"/>
<path d="M13180 8161 c-105 -23 -413 -111 -538 -153 -51 -17 -103 -42 -116
-55 -26 -26 -38 -78 -27 -120 7 -29 20 -35 129 -63 51 -13 54 -19 76 -150 68
-404 80 -850 46 -1685 -17 -409 -25 -449 -116 -547 -69 -74 -68 -125 2 -154
42 -18 469 -74 559 -74 121 0 475 104 714 209 290 128 417 245 546 501 113
225 157 441 175 858 19 454 -18 644 -171 882 -143 222 -357 373 -674 479 -242
81 -453 106 -605 72z m402 -275 c330 -112 597 -418 674 -776 16 -69 19 -128
19 -320 0 -254 -12 -381 -52 -560 -92 -419 -300 -670 -618 -749 -110 -27 -220
-41 -326 -41 -119 0 -153 14 -182 77 -25 55 -24 -21 -19 1464 l2 846 63 29
c164 74 285 83 439 30z"/>
</g>
</svg>
