<?xml version="1.0" standalone="no"?>
<!DOCTYPE svg PUBLIC "-//W3C//DTD SVG 20010904//EN"
 "http://www.w3.org/TR/2001/REC-SVG-20010904/DTD/svg10.dtd">
<svg version="1.0" xmlns="http://www.w3.org/2000/svg"
 width="310.000000pt" height="310.000000pt" viewBox="0 0 310.000000 310.000000"
 preserveAspectRatio="xMidYMid meet">

<g transform="translate(0.000000,310.000000) scale(0.100000,-0.100000)"
fill="#000000" stroke="none">
<path d="M150 1565 l0 -1305 365 0 365 0 0 75 0 75 -295 0 -295 0 0 1155 0
1155 295 0 295 0 0 75 0 75 -365 0 -365 0 0 -1305z"/>
<path d="M2220 2795 l0 -75 290 0 290 0 0 -1155 0 -1155 -290 0 -290 0 0 -75
0 -75 365 0 365 0 0 1305 0 1305 -365 0 -365 0 0 -75z"/>
<path d="M380 1565 l0 -1065 250 0 250 0 0 80 0 80 -70 0 -70 0 0 905 0 905
70 0 70 0 0 80 0 80 -250 0 -250 0 0 -1065z"/>
<path d="M2220 2550 l0 -80 70 0 70 0 0 -905 0 -905 -70 0 -70 0 0 -80 0 -80
245 0 245 0 0 1065 0 1065 -245 0 -245 0 0 -80z"/>
<path d="M1190 1550 c0 -539 3 -980 8 -980 4 0 228 220 497 490 l490 490 -490
490 c-269 270 -493 490 -497 490 -5 0 -8 -441 -8 -980z m472 -382 l-362 -363
0 725 0 725 362 -363 363 -362 -363 -362z"/>
<path d="M1460 1533 l0 -338 170 170 170 170 -167 167 c-92 93 -169 168 -170
168 -2 0 -3 -152 -3 -337z"/>
</g>
</svg>
