<?xml version="1.0" standalone="no"?>
<!DOCTYPE svg PUBLIC "-//W3C//DTD SVG 20010904//EN"
 "http://www.w3.org/TR/2001/REC-SVG-20010904/DTD/svg10.dtd">
<svg version="1.0" xmlns="http://www.w3.org/2000/svg"
 width="478.000000pt" height="478.000000pt" viewBox="0 0 478.000000 478.000000"
 preserveAspectRatio="xMidYMid meet">

<g transform="translate(0.000000,478.000000) scale(0.100000,-0.100000)"
fill="#000000" stroke="none">
<path d="M2651 4720 c-24 -5 -66 -21 -92 -35 -41 -21 -62 -25 -135 -25 -234 0
-579 -84 -819 -200 -424 -204 -632 -507 -715 -1041 l-12 -77 -147 -52 c-281
-101 -464 -201 -561 -307 -59 -64 -85 -111 -100 -179 -23 -99 30 -198 133
-251 99 -50 274 -41 431 23 33 13 65 24 73 24 8 0 -11 -48 -52 -127 -74 -146
-108 -239 -132 -362 -21 -108 -20 -288 1 -396 13 -63 13 -81 3 -84 -33 -11
-208 -108 -272 -151 -94 -64 -179 -142 -199 -184 -31 -65 -20 -131 95 -600 63
-254 71 -293 60 -321 -14 -39 -14 -100 -1 -181 10 -60 9 -63 -25 -120 -19 -32
-35 -61 -35 -66 0 -4 11 -8 24 -8 17 0 30 11 45 36 26 44 39 39 16 -5 l-16
-31 445 0 446 0 -11 27 c-47 124 -152 253 -206 253 -30 0 -30 1 -46 79 -22
111 -41 150 -76 164 -39 14 -47 47 -22 95 10 20 24 56 30 80 7 23 15 42 19 42
4 -1 25 -29 47 -63 22 -34 73 -97 114 -139 72 -76 102 -98 81 -58 -6 11 -13
41 -15 66 -3 25 -12 66 -20 90 -8 25 -15 59 -15 77 l0 32 42 -50 c74 -89 131
-135 215 -177 65 -32 83 -46 83 -63 0 -37 -50 -124 -93 -161 -42 -36 -42 -37
-12 -30 82 19 107 29 155 62 l51 35 -20 -40 c-20 -39 -61 -139 -107 -258 l-23
-63 29 0 c24 0 30 6 40 37 26 81 119 262 155 301 41 47 60 54 49 20 -4 -13 -8
-32 -8 -43 -1 -11 -11 -34 -24 -52 -27 -38 -122 -232 -122 -250 0 -10 345 -13
1690 -13 l1690 0 0 416 0 416 -41 49 -41 49 21 78 c36 133 35 135 -89 267 -36
39 -89 98 -117 133 l-52 62 34 71 c19 40 44 114 56 166 19 83 21 111 16 246
-4 84 -9 168 -13 187 -9 52 6 30 69 -95 68 -135 106 -261 114 -379 8 -120 23
-83 30 75 8 169 -20 287 -121 512 l-26 57 43 -22 c23 -12 59 -30 80 -40 37
-17 37 -17 37 5 0 15 -14 31 -44 50 -60 38 -170 155 -243 261 -59 83 -61 89
-50 119 20 55 15 521 -7 642 -52 287 -139 520 -258 699 -55 81 -215 239 -309
303 -96 66 -258 151 -378 198 -112 44 -327 100 -426 110 -50 6 -79 15 -101 31
-17 13 -50 31 -75 39 -54 20 -179 27 -238 15z m98 -44 c-2 -2 -35 -6 -74 -9
-44 -4 -61 -3 -45 2 24 9 127 15 119 7z m-184 -76 c-378 -13 -623 -70 -899
-207 -380 -189 -558 -435 -651 -897 -19 -95 -26 -113 -46 -123 -13 -7 -25 -10
-27 -8 -9 9 32 218 65 325 107 357 273 552 608 716 220 108 404 159 710 197
17 2 125 4 240 4 l210 0 -210 -7z m273 -7 c-10 -2 -28 -2 -40 0 -13 2 -5 4 17
4 22 1 32 -1 23 -4z m642 -123 c8 -5 11 -10 5 -10 -5 0 -17 5 -25 10 -8 5 -10
10 -5 10 6 0 17 -5 25 -10z m-1060 -225 c0 -22 -4 -25 -35 -25 l-35 0 0 -200
0 -200 35 0 c31 0 35 -3 35 -25 0 -24 -3 -25 -60 -25 l-60 0 0 250 0 250 60 0
c57 0 60 -1 60 -25z m690 -225 l0 -250 -60 0 c-57 0 -60 1 -60 25 0 22 4 25
35 25 l35 0 0 200 0 200 -35 0 c-31 0 -35 3 -35 25 0 24 3 25 60 25 l60 0 0
-250z m-1129 124 c115 -64 209 -120 209 -124 0 -9 -413 -240 -429 -240 -8 0
-11 71 -11 240 0 174 3 240 11 240 7 0 106 -52 220 -116z m589 81 c0 -11 -7
-14 -24 -9 -29 7 -46 -17 -46 -64 0 -35 22 -56 50 -49 13 3 20 0 20 -9 0 -9
-12 -14 -34 -14 -42 0 -66 29 -66 80 0 51 24 80 66 80 24 0 34 -5 34 -15z
m240 -64 l0 -80 -47 2 c-46 2 -48 3 -51 34 -4 41 12 71 43 79 16 4 25 13 25
25 0 10 7 19 15 19 12 0 15 -15 15 -79z m-136 26 c21 -15 24 -70 6 -92 -7 -8
-25 -15 -40 -15 -35 0 -53 22 -52 63 1 32 23 57 52 57 9 0 24 -6 34 -13z m240
-3 c9 -8 16 -24 16 -35 0 -15 -7 -19 -36 -19 -24 0 -34 -4 -31 -12 2 -7 18
-12 36 -11 43 2 35 -21 -9 -25 -24 -3 -38 2 -47 14 -20 28 -16 71 9 88 28 20
43 20 62 0z m-1354 -154 c0 -16 -7 -20 -35 -20 l-35 0 0 -130 0 -130 35 0 c28
0 35 -4 35 -20 0 -19 -7 -20 -100 -20 -93 0 -100 1 -100 20 0 17 7 20 40 20
l40 0 0 130 0 130 -40 0 c-33 0 -40 3 -40 20 0 19 7 20 100 20 93 0 100 -1
100 -20z m929 -39 c9 -6 12 -20 9 -42 -3 -19 0 -42 6 -51 18 -29 -4 -53 -53
-56 l-41 -3 0 80 0 81 33 0 c17 0 38 -4 46 -9z m101 -61 c0 -56 3 -70 15 -70
8 0 15 -4 15 -10 0 -5 -13 -10 -30 -10 l-30 0 0 70 c0 56 -3 70 -15 70 -8 0
-15 5 -15 10 0 6 14 10 30 10 l30 0 0 -70z m330 30 c0 -46 5 -48 37 -18 30 28
43 15 14 -16 l-22 -23 26 -32 c25 -29 25 -31 7 -31 -11 0 -30 12 -41 28 l-20
27 -1 -27 c0 -16 -4 -28 -10 -28 -6 0 -10 33 -10 80 0 47 4 80 10 80 6 0 10
-18 10 -40z m-186 -13 c21 -15 24 -70 6 -92 -7 -8 -25 -15 -40 -15 -35 0 -53
22 -52 63 1 32 23 57 52 57 9 0 24 -6 34 -13z m134 -4 c2 -9 -7 -13 -27 -13
-20 0 -34 -6 -38 -16 -9 -25 11 -49 41 -49 15 1 26 -5 26 -12 0 -8 -13 -13
-34 -13 -59 0 -86 60 -45 101 22 22 69 23 77 2z m-1115 -450 c-7 -2 -21 -2
-30 0 -10 3 -4 5 12 5 17 0 24 -2 18 -5z m-128 -18 c-203 -39 -240 -49 -215
-55 24 -6 23 -7 -10 -14 -256 -57 -678 -186 -844 -257 -244 -106 -389 -250
-406 -403 -6 -60 -7 -61 -19 -31 -31 73 4 162 104 261 63 63 90 80 216 142
144 71 522 212 719 270 177 51 415 100 490 100 22 0 10 -5 -35 -13z m-152 -52
c-7 -2 -19 -2 -25 0 -7 3 -2 5 12 5 14 0 19 -2 13 -5z m21 -524 c14 -36 26
-68 26 -71 0 -3 -15 -9 -33 -12 -19 -3 -55 -20 -80 -36 -26 -16 -47 -26 -47
-22 0 12 100 215 104 211 2 -2 15 -34 30 -70z m925 -145 c6 -5 -20 -34 -29
-34 -8 0 -50 65 -50 76 0 5 61 -28 79 -42z m-651 -87 c34 -50 69 -103 78 -117
9 -14 -12 4 -48 41 -35 36 -76 87 -91 113 -31 56 -31 56 -14 56 6 0 40 -42 75
-93z m-177 46 c12 -21 35 -54 51 -74 15 -20 28 -39 28 -43 0 -3 -30 -3 -67 1
-74 6 -78 1 -17 -21 38 -14 38 -15 9 -15 -16 -1 -47 -6 -67 -11 -29 -8 -45 -7
-73 4 -36 15 -45 10 -22 -13 17 -17 -12 -37 -81 -57 -58 -17 -60 -23 -13 -33
l31 -6 -41 -47 c-22 -27 -45 -48 -51 -48 -12 0 -4 65 22 195 31 150 35 155
160 191 82 23 106 19 131 -23z m1541 31 c21 -4 35 -11 32 -16 -7 -10 -79 -1
-104 13 -19 10 17 12 72 3z m-642 -14 c10 -5 60 -20 112 -33 l93 -24 -34 -18
c-24 -12 -48 -16 -78 -12 -23 2 -43 3 -43 0 0 -2 17 -11 37 -20 l38 -15 -28
-24 c-18 -15 -41 -24 -62 -24 -31 0 -39 6 -83 73 l-49 72 21 17 c24 20 49 22
76 8z m781 -56 l34 -37 -52 29 c-28 15 -49 32 -47 36 10 16 31 7 65 -28z
m-811 -160 c36 -21 66 -39 68 -40 1 0 -5 -20 -13 -44 -20 -58 -19 -59 13 -20
l29 34 18 -52 c18 -49 35 -68 35 -39 0 28 50 116 86 151 43 42 89 68 147 84
39 11 39 11 23 -11 -22 -29 -56 -99 -56 -114 0 -8 13 -13 30 -13 40 0 87 -25
95 -50 7 -23 -8 -55 -31 -64 -22 -9 -67 15 -79 42 -19 43 -28 22 -23 -55 8
-125 57 -203 161 -255 l49 -24 -41 -14 -41 -13 25 -13 c17 -9 34 -10 57 -3 19
5 45 5 65 0 21 -6 33 -6 33 0 0 6 28 23 63 39 59 27 60 29 28 29 l-33 1 31 29
c49 46 73 111 73 198 0 82 5 88 16 22 l8 -44 18 30 c17 29 17 28 11 -85 -4
-63 -12 -149 -18 -190 l-12 -75 -53 -31 c-81 -49 -196 -76 -343 -82 -176 -6
-252 17 -331 103 -32 33 -101 170 -116 228 l-10 37 56 1 57 1 -35 13 c-35 13
-34 13 38 14 41 1 72 5 72 11 0 6 -5 10 -11 10 -22 0 -143 128 -215 226 -41
56 -74 105 -74 108 0 4 15 -4 33 -17 17 -13 61 -41 97 -63z m90 16 c0 -5 -6
-10 -14 -10 -8 0 -18 5 -21 10 -3 6 3 10 14 10 12 0 21 -4 21 -10z m-1548
-152 c-10 -278 38 -499 144 -665 38 -60 36 -69 -4 -21 -61 72 -117 183 -148
298 -23 82 -26 373 -6 463 7 31 15 57 16 57 2 0 1 -60 -2 -132z m3453 -27 c7
-31 15 -78 19 -106 l6 -50 -14 45 c-12 40 -62 219 -72 260 -3 8 8 -9 22 -39
14 -29 32 -78 39 -110z m-3780 -1 c-55 -165 -94 -309 -104 -393 -11 -97 -21
-110 -21 -30 0 75 22 206 51 298 24 78 97 241 104 233 3 -2 -11 -51 -30 -108z
m956 33 c-16 -27 -32 -60 -35 -74 -5 -24 -3 -27 33 -33 76 -12 118 -79 69
-110 -25 -15 -72 4 -76 32 -2 12 -10 22 -18 22 -10 0 -14 -14 -14 -53 0 -119
54 -218 142 -263 l52 -27 -37 -14 c-20 -8 -37 -20 -37 -25 0 -6 7 -8 15 -4 9
3 15 0 15 -9 0 -12 6 -12 37 1 20 9 55 14 78 12 29 -2 41 1 38 8 -2 7 8 17 24
22 26 10 26 11 8 17 -19 6 -17 10 26 53 55 55 73 108 67 194 -5 68 5 67 22 -3
15 -63 5 -185 -22 -256 -19 -52 -71 -108 -125 -137 -84 -43 -279 -63 -370 -37
-66 18 -96 57 -132 168 -17 54 -35 120 -40 148 l-9 49 54 -56 c30 -31 54 -53
54 -50 0 4 -7 29 -15 56 -18 59 -20 183 -3 238 16 55 83 126 143 154 79 37 90
33 56 -23z m2350 15 c21 -14 45 -46 64 -83 27 -54 30 -69 30 -155 0 -88 -3
-100 -32 -157 -41 -78 -116 -153 -188 -188 -31 -15 -58 -26 -60 -24 -7 8 37
139 46 139 16 0 59 48 59 64 0 11 -8 8 -26 -11 -14 -14 -27 -23 -30 -21 -2 3
0 27 5 54 5 27 12 82 16 122 6 62 9 70 20 56 11 -16 14 -15 28 13 17 33 35 43
73 43 13 0 24 4 24 10 0 17 -38 30 -89 30 l-51 0 0 65 0 65 39 0 c23 0 52 -9
72 -22z m-3067 -245 c2 -183 1 -194 -11 -143 -7 30 -14 98 -15 150 -1 95 9
206 19 196 3 -3 6 -94 7 -203z m1119 87 c5 -45 5 -45 -9 -14 -7 17 -16 44 -20
60 -6 26 -5 27 9 14 8 -8 17 -35 20 -60z m-1245 -87 c-32 -160 -50 -359 -47
-520 2 -84 3 -153 1 -153 -1 0 -20 9 -41 20 -45 22 -51 42 -51 164 0 108 23
244 61 364 27 83 83 212 92 212 2 0 -5 -39 -15 -87z m1479 67 l81 -12 11 -42
c18 -71 96 -219 144 -272 52 -58 138 -107 215 -123 128 -27 372 -3 486 47 55
25 57 17 17 -54 -41 -71 -119 -138 -189 -162 l-57 -20 85 -1 c134 -1 208 23
309 97 l33 25 -7 -34 c-12 -59 -65 -211 -95 -274 -25 -53 -38 -66 -108 -113
-197 -130 -558 -257 -763 -269 -194 -12 -525 72 -708 179 -79 46 -192 161
-224 228 -28 57 -47 138 -47 197 l0 34 33 -18 c46 -24 210 -29 305 -9 249 52
344 189 343 494 l0 124 27 -5 c15 -3 64 -11 109 -17z m941 -19 c8 -5 12 -17
10 -27 -4 -21 -34 -21 -57 1 -26 25 14 47 47 26z m-230 -32 c4 -21 -48 -45
-59 -28 -4 7 -3 21 2 32 12 22 52 19 57 -4z m-2148 -259 c-15 -175 -15 -380 0
-459 14 -79 6 -91 -14 -20 -38 132 -38 353 -1 533 8 39 15 75 15 80 0 5 3 7 6
4 3 -4 1 -66 -6 -138z m2555 78 c-18 -55 -62 -148 -70 -148 -4 0 12 44 39 105
8 17 20 47 27 67 20 58 23 36 4 -24z m-1431 46 c20 -8 21 -30 2 -37 -16 -6
-36 11 -36 30 0 14 10 16 34 7z m-211 -27 c6 -17 -36 -47 -52 -38 -10 7 -10
13 0 30 15 23 44 28 52 8z m-472 -752 c28 -41 70 -96 92 -122 59 -66 13 -37
-59 39 -99 104 -154 195 -199 334 -14 42 -25 79 -25 83 0 3 31 -54 69 -126 38
-73 93 -166 122 -208z m-707 291 c57 -24 51 -33 -37 -60 -85 -26 -181 -65
-175 -71 2 -2 41 8 88 21 154 45 254 42 281 -7 9 -17 6 -19 -24 -19 -34 0
-139 -24 -164 -38 -7 -5 41 -6 107 -4 121 4 121 4 150 -23 43 -41 84 -140 84
-205 1 -49 -3 -62 -38 -109 -43 -58 -45 -57 -59 15 -5 27 -3 33 16 39 22 7 22
8 -3 12 -34 7 -40 18 -41 88 l-1 60 -20 -43 c-19 -42 -19 -46 -3 -105 21 -85
30 -238 17 -320 -13 -79 -45 -154 -95 -220 -40 -51 -40 -56 4 -30 34 20 40 16
42 -28 2 -30 -3 -36 -48 -61 -27 -15 -77 -37 -111 -48 -63 -21 -202 -41 -232
-33 -27 7 -212 765 -212 870 0 47 28 90 93 145 70 60 129 99 221 147 83 44
109 49 160 27z m3806 -68 c34 -27 297 -314 311 -339 6 -12 4 -41 -6 -86 -24
-108 -113 -534 -145 -693 -17 -80 -32 -155 -35 -166 -4 -17 -17 -25 -56 -34
-104 -25 -245 5 -346 73 -42 29 -48 37 -46 66 1 40 8 48 28 31 34 -28 21 -1
-35 72 -32 43 -67 102 -78 131 -26 69 -42 184 -42 300 0 83 -3 96 -26 130 -31
46 -40 44 -20 -5 13 -29 13 -133 1 -146 -9 -10 -77 98 -92 145 -15 48 -16 58
-3 80 24 42 65 65 147 83 l78 17 -48 8 c-26 4 -56 5 -67 2 -29 -7 -25 7 10 37
45 37 101 49 207 44 51 -3 90 -2 88 3 -8 12 -153 42 -180 36 -34 -6 -31 5 10
42 70 61 86 65 173 40 42 -12 106 -34 141 -50 35 -16 66 -27 69 -25 13 14
-202 136 -239 136 -16 0 16 36 66 72 47 35 87 33 135 -4z m-2655 -455 c-9 -16
-36 -43 -61 -62 -24 -18 -53 -49 -65 -67 -18 -30 -20 -41 -11 -74 12 -47 8
-50 -12 -12 l-15 27 -1 -28 c0 -16 -4 -26 -10 -22 -13 8 -13 60 1 110 13 47
65 100 130 132 57 29 64 29 44 -4z m1248 -75 c7 -110 19 -157 52 -197 29 -34
35 -27 -90 -101 -127 -75 -305 -197 -409 -280 -53 -42 -97 -70 -112 -70 -53 0
-103 31 -157 98 -63 79 -101 132 -96 136 2 2 35 13 72 26 76 25 98 22 90 -11
-4 -14 -2 -20 5 -15 15 9 53 128 61 189 l6 51 120 41 c119 40 260 109 379 185
33 22 64 40 67 40 4 0 9 -42 12 -92z m-1429 -263 c7 -18 6 -18 -12 -1 -19 16
-21 16 -50 -20 -26 -32 -29 -40 -20 -66 6 -16 33 -54 62 -86 41 -45 45 -53 21
-38 -102 64 -145 123 -145 197 0 38 6 48 57 98 l57 56 11 -61 c7 -33 15 -69
19 -79z m-1239 -586 c4 -11 2 -19 -3 -19 -16 0 -32 58 -37 134 l-5 71 20 -84
c11 -46 22 -92 25 -102z"/>
<path d="M1800 4020 c0 -88 3 -160 6 -160 11 0 304 155 304 160 0 5 -293 160
-304 160 -3 0 -6 -72 -6 -160z"/>
<path d="M2747 4163 c-9 -8 -9 -48 0 -56 11 -12 33 14 33 39 0 23 -19 32 -33
17z"/>
<path d="M2615 4149 c-5 -14 -1 -27 9 -37 15 -15 17 -15 32 0 20 20 10 58 -16
58 -10 0 -22 -10 -25 -21z"/>
<path d="M2865 4160 c-3 -5 3 -10 14 -10 12 0 21 5 21 10 0 6 -6 10 -14 10 -8
0 -18 -4 -21 -10z"/>
<path d="M2440 3955 c0 -28 12 -32 29 -11 10 12 8 17 -8 26 -19 9 -21 8 -21
-15z"/>
<path d="M2440 3885 c0 -16 6 -25 15 -25 21 0 31 30 14 41 -23 14 -29 11 -29
-16z"/>
<path d="M2675 3909 c-5 -14 -1 -27 9 -37 15 -15 17 -15 32 0 20 20 10 58 -16
58 -10 0 -22 -10 -25 -21z"/>
<path d="M1348 3413 c6 -2 18 -2 25 0 6 3 1 5 -13 5 -14 0 -19 -2 -12 -5z"/>
<path d="M2176 1853 c-4 -13 -2 -31 4 -43 16 -30 19 -22 11 25 -6 34 -8 37
-15 18z"/>
<path d="M2587 1635 c-117 -80 -314 -116 -445 -81 -46 13 -54 13 -59 0 -23
-61 106 -208 202 -230 29 -6 28 -5 -11 24 -23 17 -49 41 -58 54 -37 53 -5 98
70 98 22 0 87 12 143 26 122 30 165 29 169 -5 7 -43 -9 -74 -65 -129 -59 -57
-39 -54 34 4 68 56 121 192 94 243 -15 27 -28 27 -74 -4z"/>
</g>
</svg>
