<?xml version="1.0" standalone="no"?>
<!DOCTYPE svg PUBLIC "-//W3C//DTD SVG 20010904//EN"
 "http://www.w3.org/TR/2001/REC-SVG-20010904/DTD/svg10.dtd">
<svg version="1.0" xmlns="http://www.w3.org/2000/svg"
 width="304.000000pt" height="304.000000pt" viewBox="0 0 304.000000 304.000000"
 preserveAspectRatio="xMidYMid meet">

<g transform="translate(0.000000,304.000000) scale(0.100000,-0.100000)"
fill="#000000" stroke="none">
<path d="M110 1505 l0 -1305 365 0 365 0 0 200 0 200 -70 0 -70 0 0 905 0 905
70 0 70 0 0 200 0 200 -365 0 -365 0 0 -1305z"/>
<path d="M2180 2610 l0 -200 70 0 70 0 0 -905 0 -905 -70 0 -70 0 0 -200 0
-200 365 0 365 0 0 1305 0 1305 -365 0 -365 0 0 -200z"/>
<path d="M1150 1490 c0 -539 3 -980 8 -980 4 0 228 220 497 490 l490 490 -490
490 c-269 270 -493 490 -497 490 -5 0 -8 -441 -8 -980z m478 407 l402 -402
-405 -405 -405 -405 0 808 c0 444 1 807 3 807 1 0 183 -181 405 -403z"/>
<path d="M1310 1495 c0 -316 3 -575 8 -575 4 0 136 129 295 288 l287 287 -288
288 c-158 158 -290 287 -295 287 -4 0 -7 -259 -7 -575z"/>
</g>
</svg>
