<?xml version="1.0" standalone="no"?>
<!DOCTYPE svg PUBLIC "-//W3C//DTD SVG 20010904//EN"
 "http://www.w3.org/TR/2001/REC-SVG-20010904/DTD/svg10.dtd">
<svg version="1.0" xmlns="http://www.w3.org/2000/svg"
 width="288.000000pt" height="288.000000pt" viewBox="0 0 288.000000 288.000000"
 preserveAspectRatio="xMidYMid meet">

<g transform="translate(0.000000,288.000000) scale(0.100000,-0.100000)"
fill="#000000" stroke="none">
<path d="M240 1470 l0 -1240 350 0 350 0 0 190 0 190 -70 0 -70 0 0 860 0 860
70 0 70 0 0 190 0 190 -350 0 -350 0 0 -1240z"/>
<path d="M1980 2520 l0 -190 65 0 65 0 0 -860 0 -860 -65 0 -65 0 0 -190 0
-190 350 0 350 0 0 1240 0 1240 -350 0 -350 0 0 -190z"/>
<path d="M1130 1465 c0 -476 3 -865 7 -865 5 0 203 195 440 432 l433 433 -432
432 c-238 238 -436 433 -440 433 -5 0 -8 -389 -8 -865z"/>
</g>
</svg>
